<?xml version="1.0" encoding="UTF-8"?>
<svg width="300px" height="274px" viewBox="0 0 300 274" version="1.1" xmlns="http://www.w3.org/2000/svg" xmlns:xlink="http://www.w3.org/1999/xlink">
    <!-- Generator: Sketch 55.2 (78181) - https://sketchapp.com -->
    <title>Exapand</title>
    <desc>Created with Sketch.</desc>
    <g id="Home-Alternate" stroke="none" stroke-width="1" fill="none" fill-rule="evenodd">
        <g id="Capital-Raise" transform="translate(-295.000000, -550.000000)">
            <g id="Exapand" transform="translate(295.000000, 550.000000)">
                <g id="noun_investors_1415384-copy-2" transform="translate(123.364486, 220.605128)" fill="#208389">
                    <path d="M26.2455179,30.7501844 C25.8116473,30.7501844 25.4374948,30.7155046 25.1340291,30.6449493 C24.8195947,30.5720022 24.5124728,30.4870966 24.2151008,30.39382 L23.995728,30.3244604 L23.9128538,30.5361266 C23.8385108,30.7250715 23.7714803,30.9235832 23.7129808,31.1268783 C23.6508252,31.3385445 23.6093881,31.5502106 23.5898883,31.7558974 L23.572826,31.9436465 L23.7544179,32.004635 C23.944541,32.0680153 24.1297892,32.1254163 24.3125998,32.1780338 C24.4990667,32.2330431 24.6940647,32.2796814 24.8939377,32.315557 C25.0938107,32.3526285 25.3095273,32.381329 25.5423062,32.3980709 C25.7555853,32.4160087 25.994458,32.4231839 26.2552678,32.4243797 L26.2552678,33.7721069 L26.4466097,33.812766 C26.5355775,33.8318996 26.6245454,33.8462499 26.7159507,33.8570125 C26.8049186,33.8653835 26.8938864,33.8713628 26.9828543,33.8713628 C27.0620722,33.8713628 27.1473839,33.8653835 27.2387892,33.8558167 C27.3301945,33.845054 27.4167249,33.8307038 27.4971616,33.8115701 L27.681191,33.7661277 L27.681191,32.2593519 C28.4234023,32.0871489 29.0181464,31.7654643 29.4483608,31.2990813 C29.9212311,30.7872559 30.1613224,30.1199694 30.1613224,29.3175516 C30.1613224,28.9157447 30.1040417,28.5629678 29.9894804,28.2711795 C29.8761378,27.980587 29.7152644,27.7246743 29.5117352,27.5094206 C29.3106434,27.2989504 29.0668959,27.1147889 28.7865862,26.9629154 C28.5172451,26.8182171 28.2162169,26.6771064 27.8920327,26.5431708 L27.383819,26.3327005 C27.1083843,26.2190944 26.8621992,26.1150551 26.6452639,26.0193868 C26.4453909,25.9320895 26.2723302,25.8328336 26.1309566,25.7252068 C26.0029891,25.6283426 25.9079276,25.5219116 25.8433345,25.3975428 C25.7811788,25.2791533 25.7494917,25.1320633 25.7494917,24.9610562 C25.7494917,24.6023001 25.864053,24.3475832 26.1017069,24.1837512 C26.361298,24.0031773 26.7525128,23.9122924 27.2607265,23.9122924 C27.6543788,23.9122924 28.0029378,23.9433846 28.2966536,24.005569 C28.5928069,24.0665576 28.8609292,24.1407005 29.0924894,24.2256061 L29.3118622,24.3057283 L29.4020488,24.0928663 C29.5617034,23.7173682 29.6665149,23.3287158 29.7140456,22.9376716 L29.7384204,22.7511184 L29.5592659,22.6853464 C29.2862687,22.5836989 28.9584282,22.4999891 28.5842757,22.4366088 C28.2881224,22.386383 27.9846567,22.3505074 27.6799723,22.328982 L27.6799723,21.1438909 L27.4959429,21.0984484 C27.1790711,21.0207179 26.7500754,21.0159345 26.435641,21.0984484 L26.2540491,21.1462826 L26.2540491,22.4019291 C25.5240252,22.5322771 24.9463435,22.8156945 24.5319726,23.2438101 C24.0737272,23.7173682 23.8409483,24.3296454 23.8409483,25.0662913 C23.8409483,25.4358101 23.8909166,25.7586907 23.9884156,26.0277578 C24.0883521,26.3016083 24.2333819,26.5431708 24.4198487,26.74527 C24.6014407,26.9425859 24.8159385,27.1147889 25.0584673,27.2570955 C25.2888088,27.3934228 25.5496187,27.5177916 25.8274909,27.6278101 L26.4697657,27.890898 C26.7805438,28.021246 27.0523223,28.1384397 27.2838825,28.2376956 C27.4983804,28.3309722 27.6726599,28.4326197 27.8042835,28.5390507 C27.9273761,28.6383066 28.0175627,28.7531086 28.0784995,28.8870442 C28.1406552,29.0221757 28.1711236,29.1967703 28.1711236,29.4072406 C28.1711236,29.8257894 28.0260938,30.1426907 27.7275031,30.3794697 C27.4179437,30.6258156 26.9194799,30.7501844 26.2455179,30.7501844 Z" id="Path"></path>
                    <path d="M12.1142535,25.9954697 C12.9320265,25.1763099 13.4402402,24.0581866 13.4402402,22.8240655 C13.4402402,20.3223393 11.3659485,18.2858003 8.81634905,18.2858003 C6.26674963,18.2858003 4.19245794,20.3223393 4.19245794,22.8240655 C4.19245794,24.0581866 4.70067159,25.1763099 5.51844463,25.9954697 C2.45088166,26.8337632 0.342465314,28.8212722 0.342465314,31.195042 L0.342465314,34.63073 C0.342465314,35.1258134 0.751961206,35.5276203 1.25651864,35.5276203 L16.3749607,35.5276203 C16.8795181,35.5276203 17.2890146,35.1258134 17.2890146,34.63073 L17.2890146,31.195042 C17.2902328,28.8212722 15.1818164,26.8337632 12.1142535,25.9954697 Z M6.0205646,22.8240655 C6.0205646,21.3101146 7.27464576,20.079581 8.81634905,20.079581 C10.3580523,20.079581 11.6121335,21.3101146 11.6121335,22.8240655 C11.6121335,24.3368205 10.3580523,25.5673541 8.81634905,25.5673541 C7.27464576,25.5673541 6.0205646,24.3368205 6.0205646,22.8240655 Z M8.81634905,27.3611348 C12.4189379,27.3611348 15.4621261,29.1166481 15.4621261,31.195042 L15.4621261,33.7338396 L2.17057197,33.7338396 L2.17057197,31.195042 C2.17057197,29.1166481 5.21376019,27.3611348 8.81634905,27.3611348 Z" id="Shape"></path>
                    <path d="M48.0450805,25.9966656 C48.8628535,25.1775057 49.3710672,24.0593824 49.3710672,22.8252613 C49.3710672,20.3235352 47.2967755,18.2869962 44.7471761,18.2869962 C42.1963579,18.2869962 40.1220662,20.3235352 40.1220662,22.8252613 C40.1220662,24.0593824 40.6302799,25.1775057 41.4480529,25.9966656 C38.3804899,26.8349591 36.2732923,28.8212722 36.2732923,31.1938462 L36.2732923,34.6295341 C36.2732923,35.1246176 36.6827882,35.5264244 37.1873457,35.5264244 L52.3057877,35.5264244 C52.8103452,35.5264244 53.2198411,35.1246176 53.2198411,34.6295341 L53.2198411,31.1938462 C53.2198411,28.8212722 51.1114247,26.8337632 48.0450805,25.9966656 Z M41.9501729,22.8252613 C41.9501729,21.3113104 43.204254,20.0807769 44.7471761,20.0807769 C46.2888793,20.0807769 47.5429605,21.3113104 47.5429605,22.8252613 C47.5429605,24.3380164 46.2888793,25.5685499 44.7471761,25.5685499 C43.204254,25.5685499 41.9501729,24.3380164 41.9501729,22.8252613 Z M44.7471761,27.3623306 C48.3485462,27.3623306 51.3917344,29.117844 51.3917344,31.1938462 L51.3917344,33.7326438 L38.1001802,33.7326438 L38.1001802,31.1938462 C38.1001802,29.117844 41.1433685,27.3623306 44.7471761,27.3623306 Z" id="Shape"></path>
                    <path d="M30.1466975,8.23106165 C30.9644706,7.4119018 31.4726842,6.29377851 31.4726842,5.05965739 C31.4726842,2.55793126 29.3983925,0.521392253 26.8487931,0.521392253 C24.2991937,0.521392253 22.224902,2.55793126 22.224902,5.05965739 C22.224902,6.29377851 22.7331157,7.4119018 23.5508887,8.23106165 C20.4833257,9.06935516 18.3749094,11.0556683 18.3749094,13.4294381 L18.3749094,16.865126 C18.3749094,17.3602095 18.7844053,17.7620164 19.2889627,17.7620164 L34.4086235,17.7620164 C34.913181,17.7620164 35.3226769,17.3602095 35.3226769,16.865126 L35.3226769,13.4294381 C35.3226769,11.0556683 33.2142605,9.06935516 30.1466975,8.23106165 Z M24.0530087,5.05965739 C24.0530087,3.54570649 25.3070898,2.31517294 26.8487931,2.31517294 C28.3904964,2.31517294 29.6445776,3.54570649 29.6445776,5.05965739 C29.6445776,6.57241244 28.3904964,7.80294599 26.8487931,7.80294599 C25.3070898,7.80294599 24.0530087,6.57241244 24.0530087,5.05965739 Z M26.8487931,9.59672668 C30.4526007,9.59672668 33.4957889,11.35224 33.4957889,13.4294381 L33.4957889,15.9682357 L20.2030161,15.9682357 L20.2030161,13.4294381 C20.2030161,11.35224 23.2462043,9.59672668 26.8487931,9.59672668 Z" id="Shape"></path>
                    <path d="M30.1454788,43.7622695 C30.9644706,42.9419138 31.4726842,41.8249864 31.4726842,40.5896694 C31.4726842,38.0867474 29.3983925,36.0514043 26.8475744,36.0514043 C24.297975,36.0514043 22.2236833,38.0867474 22.2236833,40.5896694 C22.2236833,41.8249864 22.7318969,42.9431097 23.54967,43.7610736 C20.482107,44.5993672 18.3736907,46.5856803 18.3736907,48.9606459 L18.3736907,52.3963339 C18.3736907,52.8914173 18.7831866,53.2932242 19.287744,53.2932242 L34.4074048,53.2932242 C34.9119622,53.2932242 35.3214587,52.8914173 35.3214587,52.3963339 L35.3214587,48.9606459 C35.3226769,46.5856803 33.2142605,44.5993672 30.1454788,43.7622695 Z M24.0517899,40.5884735 C24.0517899,39.0745226 25.3058711,37.8439891 26.8475744,37.8439891 C28.3904964,37.8439891 29.6445776,39.0745226 29.6445776,40.5884735 C29.6445776,42.1024244 28.3904964,43.332958 26.8475744,43.332958 C25.3058711,43.332958 24.0517899,42.1024244 24.0517899,40.5884735 Z M26.8475744,45.1267387 C30.4501632,45.1267387 33.4945702,46.882252 33.4945702,48.9594501 L33.4945702,51.4982477 L20.2030161,51.4982477 L20.2030161,48.9594501 C20.2030161,46.882252 23.2449855,45.1267387 26.8475744,45.1267387 Z" id="Shape"></path>
                    <path d="M39.1531697,7.94884015 C41.9538291,9.70315767 44.3791172,12.0829067 46.1682243,14.8297829 C46.3425038,15.0976541 46.6374383,15.2435483 46.9396853,15.2435483 C47.1078711,15.2435483 47.2772757,15.1981058 47.4296179,15.1024375 C47.8561761,14.8357621 47.9804874,14.280886 47.7087088,13.863533 C45.7782282,10.8990115 43.1603795,8.33031751 40.1366911,6.43608511 C39.7101328,6.16821386 39.1458573,6.29258265 38.8752975,6.70993562 C38.6023002,7.1272886 38.7266115,7.68216476 39.1531697,7.94884015 Z" id="Path"></path>
                    <path d="M6.26796836,15.1048292 C6.42031059,15.2004975 6.59093387,15.24594 6.75911969,15.24594 C7.06014792,15.24594 7.3563012,15.09885 7.5305807,14.8309787 C9.31846901,12.0841026 11.7437572,9.70435352 14.5431978,7.95003601 C14.9697561,7.68336061 15.0940673,7.12848445 14.8222888,6.71113148 C14.5505103,6.29258265 13.9837972,6.17060556 13.5596765,6.43728096 C10.5372068,8.33031751 7.91935805,10.8990115 5.98887741,13.8659247 C5.71831763,14.2832777 5.84262888,14.8381538 6.26796836,15.1048292 Z" id="Path"></path>
                    <path d="M14.5480728,45.8669722 C11.7461947,44.1114588 9.31846901,41.7317098 7.5305807,38.981246 C7.25880217,38.5615014 6.69330785,38.441916 6.26796836,38.7073955 C5.84262888,38.9740709 5.71709889,39.5289471 5.98887741,39.9451042 C7.91935805,42.9132133 10.5396443,45.484299 13.5645514,47.3773355 C13.7168936,47.4730038 13.8875169,47.5184463 14.0557027,47.5184463 C14.3579497,47.5184463 14.6528842,47.3725521 14.8271637,47.103485 C15.0989423,46.6873279 14.9734123,46.1336476 14.5480728,45.8669722 Z" id="Path"></path>
                    <path d="M47.4308366,38.7085914 C47.0030597,38.4395243 46.4400028,38.5638931 46.169443,38.9824419 C44.3815547,41.7293181 41.9574853,44.1078712 39.1580446,45.8621888 C38.7314864,46.1288642 38.6071752,46.6837403 38.8789537,47.0998974 C39.0532332,47.3689645 39.3481677,47.5148587 39.6504147,47.5148587 C39.8186005,47.5148587 39.9880051,47.4694163 40.1403473,47.373748 C43.1615982,45.4807114 45.7794469,42.9132133 47.7087088,39.9474959 C47.9817061,39.5301429 47.8561761,38.9752668 47.4308366,38.7085914 Z" id="Path"></path>
                </g>
                <g id="noun_investors_1415384-copy-3" transform="translate(123.364486, 0.000000)" fill="#208389">
                    <path d="M26.2455179,30.7501844 C25.8116473,30.7501844 25.4374948,30.7155046 25.1340291,30.6449493 C24.8195947,30.5720022 24.5124728,30.4870966 24.2151008,30.39382 L23.995728,30.3244604 L23.9128538,30.5361266 C23.8385108,30.7250715 23.7714803,30.9235832 23.7129808,31.1268783 C23.6508252,31.3385445 23.6093881,31.5502106 23.5898883,31.7558974 L23.572826,31.9436465 L23.7544179,32.004635 C23.944541,32.0680153 24.1297892,32.1254163 24.3125998,32.1780338 C24.4990667,32.2330431 24.6940647,32.2796814 24.8939377,32.315557 C25.0938107,32.3526285 25.3095273,32.381329 25.5423062,32.3980709 C25.7555853,32.4160087 25.994458,32.4231839 26.2552678,32.4243797 L26.2552678,33.7721069 L26.4466097,33.812766 C26.5355775,33.8318996 26.6245454,33.8462499 26.7159507,33.8570125 C26.8049186,33.8653835 26.8938864,33.8713628 26.9828543,33.8713628 C27.0620722,33.8713628 27.1473839,33.8653835 27.2387892,33.8558167 C27.3301945,33.845054 27.4167249,33.8307038 27.4971616,33.8115701 L27.681191,33.7661277 L27.681191,32.2593519 C28.4234023,32.0871489 29.0181464,31.7654643 29.4483608,31.2990813 C29.9212311,30.7872559 30.1613224,30.1199694 30.1613224,29.3175516 C30.1613224,28.9157447 30.1040417,28.5629678 29.9894804,28.2711795 C29.8761378,27.980587 29.7152644,27.7246743 29.5117352,27.5094206 C29.3106434,27.2989504 29.0668959,27.1147889 28.7865862,26.9629154 C28.5172451,26.8182171 28.2162169,26.6771064 27.8920327,26.5431708 L27.383819,26.3327005 C27.1083843,26.2190944 26.8621992,26.1150551 26.6452639,26.0193868 C26.4453909,25.9320895 26.2723302,25.8328336 26.1309566,25.7252068 C26.0029891,25.6283426 25.9079276,25.5219116 25.8433345,25.3975428 C25.7811788,25.2791533 25.7494917,25.1320633 25.7494917,24.9610562 C25.7494917,24.6023001 25.864053,24.3475832 26.1017069,24.1837512 C26.361298,24.0031773 26.7525128,23.9122924 27.2607265,23.9122924 C27.6543788,23.9122924 28.0029378,23.9433846 28.2966536,24.005569 C28.5928069,24.0665576 28.8609292,24.1407005 29.0924894,24.2256061 L29.3118622,24.3057283 L29.4020488,24.0928663 C29.5617034,23.7173682 29.6665149,23.3287158 29.7140456,22.9376716 L29.7384204,22.7511184 L29.5592659,22.6853464 C29.2862687,22.5836989 28.9584282,22.4999891 28.5842757,22.4366088 C28.2881224,22.386383 27.9846567,22.3505074 27.6799723,22.328982 L27.6799723,21.1438909 L27.4959429,21.0984484 C27.1790711,21.0207179 26.7500754,21.0159345 26.435641,21.0984484 L26.2540491,21.1462826 L26.2540491,22.4019291 C25.5240252,22.5322771 24.9463435,22.8156945 24.5319726,23.2438101 C24.0737272,23.7173682 23.8409483,24.3296454 23.8409483,25.0662913 C23.8409483,25.4358101 23.8909166,25.7586907 23.9884156,26.0277578 C24.0883521,26.3016083 24.2333819,26.5431708 24.4198487,26.74527 C24.6014407,26.9425859 24.8159385,27.1147889 25.0584673,27.2570955 C25.2888088,27.3934228 25.5496187,27.5177916 25.8274909,27.6278101 L26.4697657,27.890898 C26.7805438,28.021246 27.0523223,28.1384397 27.2838825,28.2376956 C27.4983804,28.3309722 27.6726599,28.4326197 27.8042835,28.5390507 C27.9273761,28.6383066 28.0175627,28.7531086 28.0784995,28.8870442 C28.1406552,29.0221757 28.1711236,29.1967703 28.1711236,29.4072406 C28.1711236,29.8257894 28.0260938,30.1426907 27.7275031,30.3794697 C27.4179437,30.6258156 26.9194799,30.7501844 26.2455179,30.7501844 Z" id="Path"></path>
                    <path d="M12.1142535,25.9954697 C12.9320265,25.1763099 13.4402402,24.0581866 13.4402402,22.8240655 C13.4402402,20.3223393 11.3659485,18.2858003 8.81634905,18.2858003 C6.26674963,18.2858003 4.19245794,20.3223393 4.19245794,22.8240655 C4.19245794,24.0581866 4.70067159,25.1763099 5.51844463,25.9954697 C2.45088166,26.8337632 0.342465314,28.8212722 0.342465314,31.195042 L0.342465314,34.63073 C0.342465314,35.1258134 0.751961206,35.5276203 1.25651864,35.5276203 L16.3749607,35.5276203 C16.8795181,35.5276203 17.2890146,35.1258134 17.2890146,34.63073 L17.2890146,31.195042 C17.2902328,28.8212722 15.1818164,26.8337632 12.1142535,25.9954697 Z M6.0205646,22.8240655 C6.0205646,21.3101146 7.27464576,20.079581 8.81634905,20.079581 C10.3580523,20.079581 11.6121335,21.3101146 11.6121335,22.8240655 C11.6121335,24.3368205 10.3580523,25.5673541 8.81634905,25.5673541 C7.27464576,25.5673541 6.0205646,24.3368205 6.0205646,22.8240655 Z M8.81634905,27.3611348 C12.4189379,27.3611348 15.4621261,29.1166481 15.4621261,31.195042 L15.4621261,33.7338396 L2.17057197,33.7338396 L2.17057197,31.195042 C2.17057197,29.1166481 5.21376019,27.3611348 8.81634905,27.3611348 Z" id="Shape"></path>
                    <path d="M48.0450805,25.9966656 C48.8628535,25.1775057 49.3710672,24.0593824 49.3710672,22.8252613 C49.3710672,20.3235352 47.2967755,18.2869962 44.7471761,18.2869962 C42.1963579,18.2869962 40.1220662,20.3235352 40.1220662,22.8252613 C40.1220662,24.0593824 40.6302799,25.1775057 41.4480529,25.9966656 C38.3804899,26.8349591 36.2732923,28.8212722 36.2732923,31.1938462 L36.2732923,34.6295341 C36.2732923,35.1246176 36.6827882,35.5264244 37.1873457,35.5264244 L52.3057877,35.5264244 C52.8103452,35.5264244 53.2198411,35.1246176 53.2198411,34.6295341 L53.2198411,31.1938462 C53.2198411,28.8212722 51.1114247,26.8337632 48.0450805,25.9966656 Z M41.9501729,22.8252613 C41.9501729,21.3113104 43.204254,20.0807769 44.7471761,20.0807769 C46.2888793,20.0807769 47.5429605,21.3113104 47.5429605,22.8252613 C47.5429605,24.3380164 46.2888793,25.5685499 44.7471761,25.5685499 C43.204254,25.5685499 41.9501729,24.3380164 41.9501729,22.8252613 Z M44.7471761,27.3623306 C48.3485462,27.3623306 51.3917344,29.117844 51.3917344,31.1938462 L51.3917344,33.7326438 L38.1001802,33.7326438 L38.1001802,31.1938462 C38.1001802,29.117844 41.1433685,27.3623306 44.7471761,27.3623306 Z" id="Shape"></path>
                    <path d="M30.1466975,8.23106165 C30.9644706,7.4119018 31.4726842,6.29377851 31.4726842,5.05965739 C31.4726842,2.55793126 29.3983925,0.521392253 26.8487931,0.521392253 C24.2991937,0.521392253 22.224902,2.55793126 22.224902,5.05965739 C22.224902,6.29377851 22.7331157,7.4119018 23.5508887,8.23106165 C20.4833257,9.06935516 18.3749094,11.0556683 18.3749094,13.4294381 L18.3749094,16.865126 C18.3749094,17.3602095 18.7844053,17.7620164 19.2889627,17.7620164 L34.4086235,17.7620164 C34.913181,17.7620164 35.3226769,17.3602095 35.3226769,16.865126 L35.3226769,13.4294381 C35.3226769,11.0556683 33.2142605,9.06935516 30.1466975,8.23106165 Z M24.0530087,5.05965739 C24.0530087,3.54570649 25.3070898,2.31517294 26.8487931,2.31517294 C28.3904964,2.31517294 29.6445776,3.54570649 29.6445776,5.05965739 C29.6445776,6.57241244 28.3904964,7.80294599 26.8487931,7.80294599 C25.3070898,7.80294599 24.0530087,6.57241244 24.0530087,5.05965739 Z M26.8487931,9.59672668 C30.4526007,9.59672668 33.4957889,11.35224 33.4957889,13.4294381 L33.4957889,15.9682357 L20.2030161,15.9682357 L20.2030161,13.4294381 C20.2030161,11.35224 23.2462043,9.59672668 26.8487931,9.59672668 Z" id="Shape"></path>
                    <path d="M30.1454788,43.7622695 C30.9644706,42.9419138 31.4726842,41.8249864 31.4726842,40.5896694 C31.4726842,38.0867474 29.3983925,36.0514043 26.8475744,36.0514043 C24.297975,36.0514043 22.2236833,38.0867474 22.2236833,40.5896694 C22.2236833,41.8249864 22.7318969,42.9431097 23.54967,43.7610736 C20.482107,44.5993672 18.3736907,46.5856803 18.3736907,48.9606459 L18.3736907,52.3963339 C18.3736907,52.8914173 18.7831866,53.2932242 19.287744,53.2932242 L34.4074048,53.2932242 C34.9119622,53.2932242 35.3214587,52.8914173 35.3214587,52.3963339 L35.3214587,48.9606459 C35.3226769,46.5856803 33.2142605,44.5993672 30.1454788,43.7622695 Z M24.0517899,40.5884735 C24.0517899,39.0745226 25.3058711,37.8439891 26.8475744,37.8439891 C28.3904964,37.8439891 29.6445776,39.0745226 29.6445776,40.5884735 C29.6445776,42.1024244 28.3904964,43.332958 26.8475744,43.332958 C25.3058711,43.332958 24.0517899,42.1024244 24.0517899,40.5884735 Z M26.8475744,45.1267387 C30.4501632,45.1267387 33.4945702,46.882252 33.4945702,48.9594501 L33.4945702,51.4982477 L20.2030161,51.4982477 L20.2030161,48.9594501 C20.2030161,46.882252 23.2449855,45.1267387 26.8475744,45.1267387 Z" id="Shape"></path>
                    <path d="M39.1531697,7.94884015 C41.9538291,9.70315767 44.3791172,12.0829067 46.1682243,14.8297829 C46.3425038,15.0976541 46.6374383,15.2435483 46.9396853,15.2435483 C47.1078711,15.2435483 47.2772757,15.1981058 47.4296179,15.1024375 C47.8561761,14.8357621 47.9804874,14.280886 47.7087088,13.863533 C45.7782282,10.8990115 43.1603795,8.33031751 40.1366911,6.43608511 C39.7101328,6.16821386 39.1458573,6.29258265 38.8752975,6.70993562 C38.6023002,7.1272886 38.7266115,7.68216476 39.1531697,7.94884015 Z" id="Path"></path>
                    <path d="M6.26796836,15.1048292 C6.42031059,15.2004975 6.59093387,15.24594 6.75911969,15.24594 C7.06014792,15.24594 7.3563012,15.09885 7.5305807,14.8309787 C9.31846901,12.0841026 11.7437572,9.70435352 14.5431978,7.95003601 C14.9697561,7.68336061 15.0940673,7.12848445 14.8222888,6.71113148 C14.5505103,6.29258265 13.9837972,6.17060556 13.5596765,6.43728096 C10.5372068,8.33031751 7.91935805,10.8990115 5.98887741,13.8659247 C5.71831763,14.2832777 5.84262888,14.8381538 6.26796836,15.1048292 Z" id="Path"></path>
                    <path d="M14.5480728,45.8669722 C11.7461947,44.1114588 9.31846901,41.7317098 7.5305807,38.981246 C7.25880217,38.5615014 6.69330785,38.441916 6.26796836,38.7073955 C5.84262888,38.9740709 5.71709889,39.5289471 5.98887741,39.9451042 C7.91935805,42.9132133 10.5396443,45.484299 13.5645514,47.3773355 C13.7168936,47.4730038 13.8875169,47.5184463 14.0557027,47.5184463 C14.3579497,47.5184463 14.6528842,47.3725521 14.8271637,47.103485 C15.0989423,46.6873279 14.9734123,46.1336476 14.5480728,45.8669722 Z" id="Path"></path>
                    <path d="M47.4308366,38.7085914 C47.0030597,38.4395243 46.4400028,38.5638931 46.169443,38.9824419 C44.3815547,41.7293181 41.9574853,44.1078712 39.1580446,45.8621888 C38.7314864,46.1288642 38.6071752,46.6837403 38.8789537,47.0998974 C39.0532332,47.3689645 39.3481677,47.5148587 39.6504147,47.5148587 C39.8186005,47.5148587 39.9880051,47.4694163 40.1403473,47.373748 C43.1615982,45.4807114 45.7794469,42.9132133 47.7087088,39.9474959 C47.9817061,39.5301429 47.8561761,38.9752668 47.4308366,38.7085914 Z" id="Path"></path>
                </g>
                <path d="M150.700935,53.3948718 L150.700935,223.415385" id="Path-2" stroke="#208389" stroke-width="2.8" stroke-dasharray="4.199999809265137"></path>
                <path d="M152.465481,22.2360239 L148.936388,254.574233" id="Path-2-Copy" stroke="#208389" stroke-width="2.8" stroke-dasharray="4.199999809265137" transform="translate(150.700935, 138.405128) rotate(-300.000000) translate(-150.700935, -138.405128) "></path>
                <path d="M152.699235,22.2322426 L148.702634,254.578014" id="Path-2-Copy-2" stroke="#208389" stroke-width="2.8" stroke-dasharray="4.199999809265137" transform="translate(150.700935, 138.405128) rotate(-240.000000) translate(-150.700935, -138.405128) "></path>
                <g id="noun_investors_1415384" transform="translate(0.000000, 42.153846)" fill="#208389">
                    <path d="M26.2455179,30.7501844 C25.8116473,30.7501844 25.4374948,30.7155046 25.1340291,30.6449493 C24.8195947,30.5720022 24.5124728,30.4870966 24.2151008,30.39382 L23.995728,30.3244604 L23.9128538,30.5361266 C23.8385108,30.7250715 23.7714803,30.9235832 23.7129808,31.1268783 C23.6508252,31.3385445 23.6093881,31.5502106 23.5898883,31.7558974 L23.572826,31.9436465 L23.7544179,32.004635 C23.944541,32.0680153 24.1297892,32.1254163 24.3125998,32.1780338 C24.4990667,32.2330431 24.6940647,32.2796814 24.8939377,32.315557 C25.0938107,32.3526285 25.3095273,32.381329 25.5423062,32.3980709 C25.7555853,32.4160087 25.994458,32.4231839 26.2552678,32.4243797 L26.2552678,33.7721069 L26.4466097,33.812766 C26.5355775,33.8318996 26.6245454,33.8462499 26.7159507,33.8570125 C26.8049186,33.8653835 26.8938864,33.8713628 26.9828543,33.8713628 C27.0620722,33.8713628 27.1473839,33.8653835 27.2387892,33.8558167 C27.3301945,33.845054 27.4167249,33.8307038 27.4971616,33.8115701 L27.681191,33.7661277 L27.681191,32.2593519 C28.4234023,32.0871489 29.0181464,31.7654643 29.4483608,31.2990813 C29.9212311,30.7872559 30.1613224,30.1199694 30.1613224,29.3175516 C30.1613224,28.9157447 30.1040417,28.5629678 29.9894804,28.2711795 C29.8761378,27.980587 29.7152644,27.7246743 29.5117352,27.5094206 C29.3106434,27.2989504 29.0668959,27.1147889 28.7865862,26.9629154 C28.5172451,26.8182171 28.2162169,26.6771064 27.8920327,26.5431708 L27.383819,26.3327005 C27.1083843,26.2190944 26.8621992,26.1150551 26.6452639,26.0193868 C26.4453909,25.9320895 26.2723302,25.8328336 26.1309566,25.7252068 C26.0029891,25.6283426 25.9079276,25.5219116 25.8433345,25.3975428 C25.7811788,25.2791533 25.7494917,25.1320633 25.7494917,24.9610562 C25.7494917,24.6023001 25.864053,24.3475832 26.1017069,24.1837512 C26.361298,24.0031773 26.7525128,23.9122924 27.2607265,23.9122924 C27.6543788,23.9122924 28.0029378,23.9433846 28.2966536,24.005569 C28.5928069,24.0665576 28.8609292,24.1407005 29.0924894,24.2256061 L29.3118622,24.3057283 L29.4020488,24.0928663 C29.5617034,23.7173682 29.6665149,23.3287158 29.7140456,22.9376716 L29.7384204,22.7511184 L29.5592659,22.6853464 C29.2862687,22.5836989 28.9584282,22.4999891 28.5842757,22.4366088 C28.2881224,22.386383 27.9846567,22.3505074 27.6799723,22.328982 L27.6799723,21.1438909 L27.4959429,21.0984484 C27.1790711,21.0207179 26.7500754,21.0159345 26.435641,21.0984484 L26.2540491,21.1462826 L26.2540491,22.4019291 C25.5240252,22.5322771 24.9463435,22.8156945 24.5319726,23.2438101 C24.0737272,23.7173682 23.8409483,24.3296454 23.8409483,25.0662913 C23.8409483,25.4358101 23.8909166,25.7586907 23.9884156,26.0277578 C24.0883521,26.3016083 24.2333819,26.5431708 24.4198487,26.74527 C24.6014407,26.9425859 24.8159385,27.1147889 25.0584673,27.2570955 C25.2888088,27.3934228 25.5496187,27.5177916 25.8274909,27.6278101 L26.4697657,27.890898 C26.7805438,28.021246 27.0523223,28.1384397 27.2838825,28.2376956 C27.4983804,28.3309722 27.6726599,28.4326197 27.8042835,28.5390507 C27.9273761,28.6383066 28.0175627,28.7531086 28.0784995,28.8870442 C28.1406552,29.0221757 28.1711236,29.1967703 28.1711236,29.4072406 C28.1711236,29.8257894 28.0260938,30.1426907 27.7275031,30.3794697 C27.4179437,30.6258156 26.9194799,30.7501844 26.2455179,30.7501844 Z" id="Path"></path>
                    <path d="M12.1142535,25.9954697 C12.9320265,25.1763099 13.4402402,24.0581866 13.4402402,22.8240655 C13.4402402,20.3223393 11.3659485,18.2858003 8.81634905,18.2858003 C6.26674963,18.2858003 4.19245794,20.3223393 4.19245794,22.8240655 C4.19245794,24.0581866 4.70067159,25.1763099 5.51844463,25.9954697 C2.45088166,26.8337632 0.342465314,28.8212722 0.342465314,31.195042 L0.342465314,34.63073 C0.342465314,35.1258134 0.751961206,35.5276203 1.25651864,35.5276203 L16.3749607,35.5276203 C16.8795181,35.5276203 17.2890146,35.1258134 17.2890146,34.63073 L17.2890146,31.195042 C17.2902328,28.8212722 15.1818164,26.8337632 12.1142535,25.9954697 Z M6.0205646,22.8240655 C6.0205646,21.3101146 7.27464576,20.079581 8.81634905,20.079581 C10.3580523,20.079581 11.6121335,21.3101146 11.6121335,22.8240655 C11.6121335,24.3368205 10.3580523,25.5673541 8.81634905,25.5673541 C7.27464576,25.5673541 6.0205646,24.3368205 6.0205646,22.8240655 Z M8.81634905,27.3611348 C12.4189379,27.3611348 15.4621261,29.1166481 15.4621261,31.195042 L15.4621261,33.7338396 L2.17057197,33.7338396 L2.17057197,31.195042 C2.17057197,29.1166481 5.21376019,27.3611348 8.81634905,27.3611348 Z" id="Shape"></path>
                    <path d="M48.0450805,25.9966656 C48.8628535,25.1775057 49.3710672,24.0593824 49.3710672,22.8252613 C49.3710672,20.3235352 47.2967755,18.2869962 44.7471761,18.2869962 C42.1963579,18.2869962 40.1220662,20.3235352 40.1220662,22.8252613 C40.1220662,24.0593824 40.6302799,25.1775057 41.4480529,25.9966656 C38.3804899,26.8349591 36.2732923,28.8212722 36.2732923,31.1938462 L36.2732923,34.6295341 C36.2732923,35.1246176 36.6827882,35.5264244 37.1873457,35.5264244 L52.3057877,35.5264244 C52.8103452,35.5264244 53.2198411,35.1246176 53.2198411,34.6295341 L53.2198411,31.1938462 C53.2198411,28.8212722 51.1114247,26.8337632 48.0450805,25.9966656 Z M41.9501729,22.8252613 C41.9501729,21.3113104 43.204254,20.0807769 44.7471761,20.0807769 C46.2888793,20.0807769 47.5429605,21.3113104 47.5429605,22.8252613 C47.5429605,24.3380164 46.2888793,25.5685499 44.7471761,25.5685499 C43.204254,25.5685499 41.9501729,24.3380164 41.9501729,22.8252613 Z M44.7471761,27.3623306 C48.3485462,27.3623306 51.3917344,29.117844 51.3917344,31.1938462 L51.3917344,33.7326438 L38.1001802,33.7326438 L38.1001802,31.1938462 C38.1001802,29.117844 41.1433685,27.3623306 44.7471761,27.3623306 Z" id="Shape"></path>
                    <path d="M30.1466975,8.23106165 C30.9644706,7.4119018 31.4726842,6.29377851 31.4726842,5.05965739 C31.4726842,2.55793126 29.3983925,0.521392253 26.8487931,0.521392253 C24.2991937,0.521392253 22.224902,2.55793126 22.224902,5.05965739 C22.224902,6.29377851 22.7331157,7.4119018 23.5508887,8.23106165 C20.4833257,9.06935516 18.3749094,11.0556683 18.3749094,13.4294381 L18.3749094,16.865126 C18.3749094,17.3602095 18.7844053,17.7620164 19.2889627,17.7620164 L34.4086235,17.7620164 C34.913181,17.7620164 35.3226769,17.3602095 35.3226769,16.865126 L35.3226769,13.4294381 C35.3226769,11.0556683 33.2142605,9.06935516 30.1466975,8.23106165 Z M24.0530087,5.05965739 C24.0530087,3.54570649 25.3070898,2.31517294 26.8487931,2.31517294 C28.3904964,2.31517294 29.6445776,3.54570649 29.6445776,5.05965739 C29.6445776,6.57241244 28.3904964,7.80294599 26.8487931,7.80294599 C25.3070898,7.80294599 24.0530087,6.57241244 24.0530087,5.05965739 Z M26.8487931,9.59672668 C30.4526007,9.59672668 33.4957889,11.35224 33.4957889,13.4294381 L33.4957889,15.9682357 L20.2030161,15.9682357 L20.2030161,13.4294381 C20.2030161,11.35224 23.2462043,9.59672668 26.8487931,9.59672668 Z" id="Shape"></path>
                    <path d="M30.1454788,43.7622695 C30.9644706,42.9419138 31.4726842,41.8249864 31.4726842,40.5896694 C31.4726842,38.0867474 29.3983925,36.0514043 26.8475744,36.0514043 C24.297975,36.0514043 22.2236833,38.0867474 22.2236833,40.5896694 C22.2236833,41.8249864 22.7318969,42.9431097 23.54967,43.7610736 C20.482107,44.5993672 18.3736907,46.5856803 18.3736907,48.9606459 L18.3736907,52.3963339 C18.3736907,52.8914173 18.7831866,53.2932242 19.287744,53.2932242 L34.4074048,53.2932242 C34.9119622,53.2932242 35.3214587,52.8914173 35.3214587,52.3963339 L35.3214587,48.9606459 C35.3226769,46.5856803 33.2142605,44.5993672 30.1454788,43.7622695 Z M24.0517899,40.5884735 C24.0517899,39.0745226 25.3058711,37.8439891 26.8475744,37.8439891 C28.3904964,37.8439891 29.6445776,39.0745226 29.6445776,40.5884735 C29.6445776,42.1024244 28.3904964,43.332958 26.8475744,43.332958 C25.3058711,43.332958 24.0517899,42.1024244 24.0517899,40.5884735 Z M26.8475744,45.1267387 C30.4501632,45.1267387 33.4945702,46.882252 33.4945702,48.9594501 L33.4945702,51.4982477 L20.2030161,51.4982477 L20.2030161,48.9594501 C20.2030161,46.882252 23.2449855,45.1267387 26.8475744,45.1267387 Z" id="Shape"></path>
                    <path d="M39.1531697,7.94884015 C41.9538291,9.70315767 44.3791172,12.0829067 46.1682243,14.8297829 C46.3425038,15.0976541 46.6374383,15.2435483 46.9396853,15.2435483 C47.1078711,15.2435483 47.2772757,15.1981058 47.4296179,15.1024375 C47.8561761,14.8357621 47.9804874,14.280886 47.7087088,13.863533 C45.7782282,10.8990115 43.1603795,8.33031751 40.1366911,6.43608511 C39.7101328,6.16821386 39.1458573,6.29258265 38.8752975,6.70993562 C38.6023002,7.1272886 38.7266115,7.68216476 39.1531697,7.94884015 Z" id="Path"></path>
                    <path d="M6.26796836,15.1048292 C6.42031059,15.2004975 6.59093387,15.24594 6.75911969,15.24594 C7.06014792,15.24594 7.3563012,15.09885 7.5305807,14.8309787 C9.31846901,12.0841026 11.7437572,9.70435352 14.5431978,7.95003601 C14.9697561,7.68336061 15.0940673,7.12848445 14.8222888,6.71113148 C14.5505103,6.29258265 13.9837972,6.17060556 13.5596765,6.43728096 C10.5372068,8.33031751 7.91935805,10.8990115 5.98887741,13.8659247 C5.71831763,14.2832777 5.84262888,14.8381538 6.26796836,15.1048292 Z" id="Path"></path>
                    <path d="M14.5480728,45.8669722 C11.7461947,44.1114588 9.31846901,41.7317098 7.5305807,38.981246 C7.25880217,38.5615014 6.69330785,38.441916 6.26796836,38.7073955 C5.84262888,38.9740709 5.71709889,39.5289471 5.98887741,39.9451042 C7.91935805,42.9132133 10.5396443,45.484299 13.5645514,47.3773355 C13.7168936,47.4730038 13.8875169,47.5184463 14.0557027,47.5184463 C14.3579497,47.5184463 14.6528842,47.3725521 14.8271637,47.103485 C15.0989423,46.6873279 14.9734123,46.1336476 14.5480728,45.8669722 Z" id="Path"></path>
                    <path d="M47.4308366,38.7085914 C47.0030597,38.4395243 46.4400028,38.5638931 46.169443,38.9824419 C44.3815547,41.7293181 41.9574853,44.1078712 39.1580446,45.8621888 C38.7314864,46.1288642 38.6071752,46.6837403 38.8789537,47.0998974 C39.0532332,47.3689645 39.3481677,47.5148587 39.6504147,47.5148587 C39.8186005,47.5148587 39.9880051,47.4694163 40.1403473,47.373748 C43.1615982,45.4807114 45.7794469,42.9132133 47.7087088,39.9474959 C47.9817061,39.5301429 47.8561761,38.9752668 47.4308366,38.7085914 Z" id="Path"></path>
                </g>
                <g id="noun_investors_1415384-copy" transform="translate(245.327103, 171.425641)" fill="#208389">
                    <path d="M26.2455179,30.7501844 C25.8116473,30.7501844 25.4374948,30.7155046 25.1340291,30.6449493 C24.8195947,30.5720022 24.5124728,30.4870966 24.2151008,30.39382 L23.995728,30.3244604 L23.9128538,30.5361266 C23.8385108,30.7250715 23.7714803,30.9235832 23.7129808,31.1268783 C23.6508252,31.3385445 23.6093881,31.5502106 23.5898883,31.7558974 L23.572826,31.9436465 L23.7544179,32.004635 C23.944541,32.0680153 24.1297892,32.1254163 24.3125998,32.1780338 C24.4990667,32.2330431 24.6940647,32.2796814 24.8939377,32.315557 C25.0938107,32.3526285 25.3095273,32.381329 25.5423062,32.3980709 C25.7555853,32.4160087 25.994458,32.4231839 26.2552678,32.4243797 L26.2552678,33.7721069 L26.4466097,33.812766 C26.5355775,33.8318996 26.6245454,33.8462499 26.7159507,33.8570125 C26.8049186,33.8653835 26.8938864,33.8713628 26.9828543,33.8713628 C27.0620722,33.8713628 27.1473839,33.8653835 27.2387892,33.8558167 C27.3301945,33.845054 27.4167249,33.8307038 27.4971616,33.8115701 L27.681191,33.7661277 L27.681191,32.2593519 C28.4234023,32.0871489 29.0181464,31.7654643 29.4483608,31.2990813 C29.9212311,30.7872559 30.1613224,30.1199694 30.1613224,29.3175516 C30.1613224,28.9157447 30.1040417,28.5629678 29.9894804,28.2711795 C29.8761378,27.980587 29.7152644,27.7246743 29.5117352,27.5094206 C29.3106434,27.2989504 29.0668959,27.1147889 28.7865862,26.9629154 C28.5172451,26.8182171 28.2162169,26.6771064 27.8920327,26.5431708 L27.383819,26.3327005 C27.1083843,26.2190944 26.8621992,26.1150551 26.6452639,26.0193868 C26.4453909,25.9320895 26.2723302,25.8328336 26.1309566,25.7252068 C26.0029891,25.6283426 25.9079276,25.5219116 25.8433345,25.3975428 C25.7811788,25.2791533 25.7494917,25.1320633 25.7494917,24.9610562 C25.7494917,24.6023001 25.864053,24.3475832 26.1017069,24.1837512 C26.361298,24.0031773 26.7525128,23.9122924 27.2607265,23.9122924 C27.6543788,23.9122924 28.0029378,23.9433846 28.2966536,24.005569 C28.5928069,24.0665576 28.8609292,24.1407005 29.0924894,24.2256061 L29.3118622,24.3057283 L29.4020488,24.0928663 C29.5617034,23.7173682 29.6665149,23.3287158 29.7140456,22.9376716 L29.7384204,22.7511184 L29.5592659,22.6853464 C29.2862687,22.5836989 28.9584282,22.4999891 28.5842757,22.4366088 C28.2881224,22.386383 27.9846567,22.3505074 27.6799723,22.328982 L27.6799723,21.1438909 L27.4959429,21.0984484 C27.1790711,21.0207179 26.7500754,21.0159345 26.435641,21.0984484 L26.2540491,21.1462826 L26.2540491,22.4019291 C25.5240252,22.5322771 24.9463435,22.8156945 24.5319726,23.2438101 C24.0737272,23.7173682 23.8409483,24.3296454 23.8409483,25.0662913 C23.8409483,25.4358101 23.8909166,25.7586907 23.9884156,26.0277578 C24.0883521,26.3016083 24.2333819,26.5431708 24.4198487,26.74527 C24.6014407,26.9425859 24.8159385,27.1147889 25.0584673,27.2570955 C25.2888088,27.3934228 25.5496187,27.5177916 25.8274909,27.6278101 L26.4697657,27.890898 C26.7805438,28.021246 27.0523223,28.1384397 27.2838825,28.2376956 C27.4983804,28.3309722 27.6726599,28.4326197 27.8042835,28.5390507 C27.9273761,28.6383066 28.0175627,28.7531086 28.0784995,28.8870442 C28.1406552,29.0221757 28.1711236,29.1967703 28.1711236,29.4072406 C28.1711236,29.8257894 28.0260938,30.1426907 27.7275031,30.3794697 C27.4179437,30.6258156 26.9194799,30.7501844 26.2455179,30.7501844 Z" id="Path"></path>
                    <path d="M12.1142535,25.9954697 C12.9320265,25.1763099 13.4402402,24.0581866 13.4402402,22.8240655 C13.4402402,20.3223393 11.3659485,18.2858003 8.81634905,18.2858003 C6.26674963,18.2858003 4.19245794,20.3223393 4.19245794,22.8240655 C4.19245794,24.0581866 4.70067159,25.1763099 5.51844463,25.9954697 C2.45088166,26.8337632 0.342465314,28.8212722 0.342465314,31.195042 L0.342465314,34.63073 C0.342465314,35.1258134 0.751961206,35.5276203 1.25651864,35.5276203 L16.3749607,35.5276203 C16.8795181,35.5276203 17.2890146,35.1258134 17.2890146,34.63073 L17.2890146,31.195042 C17.2902328,28.8212722 15.1818164,26.8337632 12.1142535,25.9954697 Z M6.0205646,22.8240655 C6.0205646,21.3101146 7.27464576,20.079581 8.81634905,20.079581 C10.3580523,20.079581 11.6121335,21.3101146 11.6121335,22.8240655 C11.6121335,24.3368205 10.3580523,25.5673541 8.81634905,25.5673541 C7.27464576,25.5673541 6.0205646,24.3368205 6.0205646,22.8240655 Z M8.81634905,27.3611348 C12.4189379,27.3611348 15.4621261,29.1166481 15.4621261,31.195042 L15.4621261,33.7338396 L2.17057197,33.7338396 L2.17057197,31.195042 C2.17057197,29.1166481 5.21376019,27.3611348 8.81634905,27.3611348 Z" id="Shape"></path>
                    <path d="M48.0450805,25.9966656 C48.8628535,25.1775057 49.3710672,24.0593824 49.3710672,22.8252613 C49.3710672,20.3235352 47.2967755,18.2869962 44.7471761,18.2869962 C42.1963579,18.2869962 40.1220662,20.3235352 40.1220662,22.8252613 C40.1220662,24.0593824 40.6302799,25.1775057 41.4480529,25.9966656 C38.3804899,26.8349591 36.2732923,28.8212722 36.2732923,31.1938462 L36.2732923,34.6295341 C36.2732923,35.1246176 36.6827882,35.5264244 37.1873457,35.5264244 L52.3057877,35.5264244 C52.8103452,35.5264244 53.2198411,35.1246176 53.2198411,34.6295341 L53.2198411,31.1938462 C53.2198411,28.8212722 51.1114247,26.8337632 48.0450805,25.9966656 Z M41.9501729,22.8252613 C41.9501729,21.3113104 43.204254,20.0807769 44.7471761,20.0807769 C46.2888793,20.0807769 47.5429605,21.3113104 47.5429605,22.8252613 C47.5429605,24.3380164 46.2888793,25.5685499 44.7471761,25.5685499 C43.204254,25.5685499 41.9501729,24.3380164 41.9501729,22.8252613 Z M44.7471761,27.3623306 C48.3485462,27.3623306 51.3917344,29.117844 51.3917344,31.1938462 L51.3917344,33.7326438 L38.1001802,33.7326438 L38.1001802,31.1938462 C38.1001802,29.117844 41.1433685,27.3623306 44.7471761,27.3623306 Z" id="Shape"></path>
                    <path d="M30.1466975,8.23106165 C30.9644706,7.4119018 31.4726842,6.29377851 31.4726842,5.05965739 C31.4726842,2.55793126 29.3983925,0.521392253 26.8487931,0.521392253 C24.2991937,0.521392253 22.224902,2.55793126 22.224902,5.05965739 C22.224902,6.29377851 22.7331157,7.4119018 23.5508887,8.23106165 C20.4833257,9.06935516 18.3749094,11.0556683 18.3749094,13.4294381 L18.3749094,16.865126 C18.3749094,17.3602095 18.7844053,17.7620164 19.2889627,17.7620164 L34.4086235,17.7620164 C34.913181,17.7620164 35.3226769,17.3602095 35.3226769,16.865126 L35.3226769,13.4294381 C35.3226769,11.0556683 33.2142605,9.06935516 30.1466975,8.23106165 Z M24.0530087,5.05965739 C24.0530087,3.54570649 25.3070898,2.31517294 26.8487931,2.31517294 C28.3904964,2.31517294 29.6445776,3.54570649 29.6445776,5.05965739 C29.6445776,6.57241244 28.3904964,7.80294599 26.8487931,7.80294599 C25.3070898,7.80294599 24.0530087,6.57241244 24.0530087,5.05965739 Z M26.8487931,9.59672668 C30.4526007,9.59672668 33.4957889,11.35224 33.4957889,13.4294381 L33.4957889,15.9682357 L20.2030161,15.9682357 L20.2030161,13.4294381 C20.2030161,11.35224 23.2462043,9.59672668 26.8487931,9.59672668 Z" id="Shape"></path>
                    <path d="M30.1454788,43.7622695 C30.9644706,42.9419138 31.4726842,41.8249864 31.4726842,40.5896694 C31.4726842,38.0867474 29.3983925,36.0514043 26.8475744,36.0514043 C24.297975,36.0514043 22.2236833,38.0867474 22.2236833,40.5896694 C22.2236833,41.8249864 22.7318969,42.9431097 23.54967,43.7610736 C20.482107,44.5993672 18.3736907,46.5856803 18.3736907,48.9606459 L18.3736907,52.3963339 C18.3736907,52.8914173 18.7831866,53.2932242 19.287744,53.2932242 L34.4074048,53.2932242 C34.9119622,53.2932242 35.3214587,52.8914173 35.3214587,52.3963339 L35.3214587,48.9606459 C35.3226769,46.5856803 33.2142605,44.5993672 30.1454788,43.7622695 Z M24.0517899,40.5884735 C24.0517899,39.0745226 25.3058711,37.8439891 26.8475744,37.8439891 C28.3904964,37.8439891 29.6445776,39.0745226 29.6445776,40.5884735 C29.6445776,42.1024244 28.3904964,43.332958 26.8475744,43.332958 C25.3058711,43.332958 24.0517899,42.1024244 24.0517899,40.5884735 Z M26.8475744,45.1267387 C30.4501632,45.1267387 33.4945702,46.882252 33.4945702,48.9594501 L33.4945702,51.4982477 L20.2030161,51.4982477 L20.2030161,48.9594501 C20.2030161,46.882252 23.2449855,45.1267387 26.8475744,45.1267387 Z" id="Shape"></path>
                    <path d="M39.1531697,7.94884015 C41.9538291,9.70315767 44.3791172,12.0829067 46.1682243,14.8297829 C46.3425038,15.0976541 46.6374383,15.2435483 46.9396853,15.2435483 C47.1078711,15.2435483 47.2772757,15.1981058 47.4296179,15.1024375 C47.8561761,14.8357621 47.9804874,14.280886 47.7087088,13.863533 C45.7782282,10.8990115 43.1603795,8.33031751 40.1366911,6.43608511 C39.7101328,6.16821386 39.1458573,6.29258265 38.8752975,6.70993562 C38.6023002,7.1272886 38.7266115,7.68216476 39.1531697,7.94884015 Z" id="Path"></path>
                    <path d="M6.26796836,15.1048292 C6.42031059,15.2004975 6.59093387,15.24594 6.75911969,15.24594 C7.06014792,15.24594 7.3563012,15.09885 7.5305807,14.8309787 C9.31846901,12.0841026 11.7437572,9.70435352 14.5431978,7.95003601 C14.9697561,7.68336061 15.0940673,7.12848445 14.8222888,6.71113148 C14.5505103,6.29258265 13.9837972,6.17060556 13.5596765,6.43728096 C10.5372068,8.33031751 7.91935805,10.8990115 5.98887741,13.8659247 C5.71831763,14.2832777 5.84262888,14.8381538 6.26796836,15.1048292 Z" id="Path"></path>
                    <path d="M14.5480728,45.8669722 C11.7461947,44.1114588 9.31846901,41.7317098 7.5305807,38.981246 C7.25880217,38.5615014 6.69330785,38.441916 6.26796836,38.7073955 C5.84262888,38.9740709 5.71709889,39.5289471 5.98887741,39.9451042 C7.91935805,42.9132133 10.5396443,45.484299 13.5645514,47.3773355 C13.7168936,47.4730038 13.8875169,47.5184463 14.0557027,47.5184463 C14.3579497,47.5184463 14.6528842,47.3725521 14.8271637,47.103485 C15.0989423,46.6873279 14.9734123,46.1336476 14.5480728,45.8669722 Z" id="Path"></path>
                    <path d="M47.4308366,38.7085914 C47.0030597,38.4395243 46.4400028,38.5638931 46.169443,38.9824419 C44.3815547,41.7293181 41.9574853,44.1078712 39.1580446,45.8621888 C38.7314864,46.1288642 38.6071752,46.6837403 38.8789537,47.0998974 C39.0532332,47.3689645 39.3481677,47.5148587 39.6504147,47.5148587 C39.8186005,47.5148587 39.9880051,47.4694163 40.1403473,47.373748 C43.1615982,45.4807114 45.7794469,42.9132133 47.7087088,39.9474959 C47.9817061,39.5301429 47.8561761,38.9752668 47.4308366,38.7085914 Z" id="Path"></path>
                </g>
                <g id="noun_investors_1415384-copy-5" transform="translate(246.728972, 46.369231)" fill="#208389">
                    <path d="M26.2455179,30.7501844 C25.8116473,30.7501844 25.4374948,30.7155046 25.1340291,30.6449493 C24.8195947,30.5720022 24.5124728,30.4870966 24.2151008,30.39382 L23.995728,30.3244604 L23.9128538,30.5361266 C23.8385108,30.7250715 23.7714803,30.9235832 23.7129808,31.1268783 C23.6508252,31.3385445 23.6093881,31.5502106 23.5898883,31.7558974 L23.572826,31.9436465 L23.7544179,32.004635 C23.944541,32.0680153 24.1297892,32.1254163 24.3125998,32.1780338 C24.4990667,32.2330431 24.6940647,32.2796814 24.8939377,32.315557 C25.0938107,32.3526285 25.3095273,32.381329 25.5423062,32.3980709 C25.7555853,32.4160087 25.994458,32.4231839 26.2552678,32.4243797 L26.2552678,33.7721069 L26.4466097,33.812766 C26.5355775,33.8318996 26.6245454,33.8462499 26.7159507,33.8570125 C26.8049186,33.8653835 26.8938864,33.8713628 26.9828543,33.8713628 C27.0620722,33.8713628 27.1473839,33.8653835 27.2387892,33.8558167 C27.3301945,33.845054 27.4167249,33.8307038 27.4971616,33.8115701 L27.681191,33.7661277 L27.681191,32.2593519 C28.4234023,32.0871489 29.0181464,31.7654643 29.4483608,31.2990813 C29.9212311,30.7872559 30.1613224,30.1199694 30.1613224,29.3175516 C30.1613224,28.9157447 30.1040417,28.5629678 29.9894804,28.2711795 C29.8761378,27.980587 29.7152644,27.7246743 29.5117352,27.5094206 C29.3106434,27.2989504 29.0668959,27.1147889 28.7865862,26.9629154 C28.5172451,26.8182171 28.2162169,26.6771064 27.8920327,26.5431708 L27.383819,26.3327005 C27.1083843,26.2190944 26.8621992,26.1150551 26.6452639,26.0193868 C26.4453909,25.9320895 26.2723302,25.8328336 26.1309566,25.7252068 C26.0029891,25.6283426 25.9079276,25.5219116 25.8433345,25.3975428 C25.7811788,25.2791533 25.7494917,25.1320633 25.7494917,24.9610562 C25.7494917,24.6023001 25.864053,24.3475832 26.1017069,24.1837512 C26.361298,24.0031773 26.7525128,23.9122924 27.2607265,23.9122924 C27.6543788,23.9122924 28.0029378,23.9433846 28.2966536,24.005569 C28.5928069,24.0665576 28.8609292,24.1407005 29.0924894,24.2256061 L29.3118622,24.3057283 L29.4020488,24.0928663 C29.5617034,23.7173682 29.6665149,23.3287158 29.7140456,22.9376716 L29.7384204,22.7511184 L29.5592659,22.6853464 C29.2862687,22.5836989 28.9584282,22.4999891 28.5842757,22.4366088 C28.2881224,22.386383 27.9846567,22.3505074 27.6799723,22.328982 L27.6799723,21.1438909 L27.4959429,21.0984484 C27.1790711,21.0207179 26.7500754,21.0159345 26.435641,21.0984484 L26.2540491,21.1462826 L26.2540491,22.4019291 C25.5240252,22.5322771 24.9463435,22.8156945 24.5319726,23.2438101 C24.0737272,23.7173682 23.8409483,24.3296454 23.8409483,25.0662913 C23.8409483,25.4358101 23.8909166,25.7586907 23.9884156,26.0277578 C24.0883521,26.3016083 24.2333819,26.5431708 24.4198487,26.74527 C24.6014407,26.9425859 24.8159385,27.1147889 25.0584673,27.2570955 C25.2888088,27.3934228 25.5496187,27.5177916 25.8274909,27.6278101 L26.4697657,27.890898 C26.7805438,28.021246 27.0523223,28.1384397 27.2838825,28.2376956 C27.4983804,28.3309722 27.6726599,28.4326197 27.8042835,28.5390507 C27.9273761,28.6383066 28.0175627,28.7531086 28.0784995,28.8870442 C28.1406552,29.0221757 28.1711236,29.1967703 28.1711236,29.4072406 C28.1711236,29.8257894 28.0260938,30.1426907 27.7275031,30.3794697 C27.4179437,30.6258156 26.9194799,30.7501844 26.2455179,30.7501844 Z" id="Path"></path>
                    <path d="M12.1142535,25.9954697 C12.9320265,25.1763099 13.4402402,24.0581866 13.4402402,22.8240655 C13.4402402,20.3223393 11.3659485,18.2858003 8.81634905,18.2858003 C6.26674963,18.2858003 4.19245794,20.3223393 4.19245794,22.8240655 C4.19245794,24.0581866 4.70067159,25.1763099 5.51844463,25.9954697 C2.45088166,26.8337632 0.342465314,28.8212722 0.342465314,31.195042 L0.342465314,34.63073 C0.342465314,35.1258134 0.751961206,35.5276203 1.25651864,35.5276203 L16.3749607,35.5276203 C16.8795181,35.5276203 17.2890146,35.1258134 17.2890146,34.63073 L17.2890146,31.195042 C17.2902328,28.8212722 15.1818164,26.8337632 12.1142535,25.9954697 Z M6.0205646,22.8240655 C6.0205646,21.3101146 7.27464576,20.079581 8.81634905,20.079581 C10.3580523,20.079581 11.6121335,21.3101146 11.6121335,22.8240655 C11.6121335,24.3368205 10.3580523,25.5673541 8.81634905,25.5673541 C7.27464576,25.5673541 6.0205646,24.3368205 6.0205646,22.8240655 Z M8.81634905,27.3611348 C12.4189379,27.3611348 15.4621261,29.1166481 15.4621261,31.195042 L15.4621261,33.7338396 L2.17057197,33.7338396 L2.17057197,31.195042 C2.17057197,29.1166481 5.21376019,27.3611348 8.81634905,27.3611348 Z" id="Shape"></path>
                    <path d="M48.0450805,25.9966656 C48.8628535,25.1775057 49.3710672,24.0593824 49.3710672,22.8252613 C49.3710672,20.3235352 47.2967755,18.2869962 44.7471761,18.2869962 C42.1963579,18.2869962 40.1220662,20.3235352 40.1220662,22.8252613 C40.1220662,24.0593824 40.6302799,25.1775057 41.4480529,25.9966656 C38.3804899,26.8349591 36.2732923,28.8212722 36.2732923,31.1938462 L36.2732923,34.6295341 C36.2732923,35.1246176 36.6827882,35.5264244 37.1873457,35.5264244 L52.3057877,35.5264244 C52.8103452,35.5264244 53.2198411,35.1246176 53.2198411,34.6295341 L53.2198411,31.1938462 C53.2198411,28.8212722 51.1114247,26.8337632 48.0450805,25.9966656 Z M41.9501729,22.8252613 C41.9501729,21.3113104 43.204254,20.0807769 44.7471761,20.0807769 C46.2888793,20.0807769 47.5429605,21.3113104 47.5429605,22.8252613 C47.5429605,24.3380164 46.2888793,25.5685499 44.7471761,25.5685499 C43.204254,25.5685499 41.9501729,24.3380164 41.9501729,22.8252613 Z M44.7471761,27.3623306 C48.3485462,27.3623306 51.3917344,29.117844 51.3917344,31.1938462 L51.3917344,33.7326438 L38.1001802,33.7326438 L38.1001802,31.1938462 C38.1001802,29.117844 41.1433685,27.3623306 44.7471761,27.3623306 Z" id="Shape"></path>
                    <path d="M30.1466975,8.23106165 C30.9644706,7.4119018 31.4726842,6.29377851 31.4726842,5.05965739 C31.4726842,2.55793126 29.3983925,0.521392253 26.8487931,0.521392253 C24.2991937,0.521392253 22.224902,2.55793126 22.224902,5.05965739 C22.224902,6.29377851 22.7331157,7.4119018 23.5508887,8.23106165 C20.4833257,9.06935516 18.3749094,11.0556683 18.3749094,13.4294381 L18.3749094,16.865126 C18.3749094,17.3602095 18.7844053,17.7620164 19.2889627,17.7620164 L34.4086235,17.7620164 C34.913181,17.7620164 35.3226769,17.3602095 35.3226769,16.865126 L35.3226769,13.4294381 C35.3226769,11.0556683 33.2142605,9.06935516 30.1466975,8.23106165 Z M24.0530087,5.05965739 C24.0530087,3.54570649 25.3070898,2.31517294 26.8487931,2.31517294 C28.3904964,2.31517294 29.6445776,3.54570649 29.6445776,5.05965739 C29.6445776,6.57241244 28.3904964,7.80294599 26.8487931,7.80294599 C25.3070898,7.80294599 24.0530087,6.57241244 24.0530087,5.05965739 Z M26.8487931,9.59672668 C30.4526007,9.59672668 33.4957889,11.35224 33.4957889,13.4294381 L33.4957889,15.9682357 L20.2030161,15.9682357 L20.2030161,13.4294381 C20.2030161,11.35224 23.2462043,9.59672668 26.8487931,9.59672668 Z" id="Shape"></path>
                    <path d="M30.1454788,43.7622695 C30.9644706,42.9419138 31.4726842,41.8249864 31.4726842,40.5896694 C31.4726842,38.0867474 29.3983925,36.0514043 26.8475744,36.0514043 C24.297975,36.0514043 22.2236833,38.0867474 22.2236833,40.5896694 C22.2236833,41.8249864 22.7318969,42.9431097 23.54967,43.7610736 C20.482107,44.5993672 18.3736907,46.5856803 18.3736907,48.9606459 L18.3736907,52.3963339 C18.3736907,52.8914173 18.7831866,53.2932242 19.287744,53.2932242 L34.4074048,53.2932242 C34.9119622,53.2932242 35.3214587,52.8914173 35.3214587,52.3963339 L35.3214587,48.9606459 C35.3226769,46.5856803 33.2142605,44.5993672 30.1454788,43.7622695 Z M24.0517899,40.5884735 C24.0517899,39.0745226 25.3058711,37.8439891 26.8475744,37.8439891 C28.3904964,37.8439891 29.6445776,39.0745226 29.6445776,40.5884735 C29.6445776,42.1024244 28.3904964,43.332958 26.8475744,43.332958 C25.3058711,43.332958 24.0517899,42.1024244 24.0517899,40.5884735 Z M26.8475744,45.1267387 C30.4501632,45.1267387 33.4945702,46.882252 33.4945702,48.9594501 L33.4945702,51.4982477 L20.2030161,51.4982477 L20.2030161,48.9594501 C20.2030161,46.882252 23.2449855,45.1267387 26.8475744,45.1267387 Z" id="Shape"></path>
                    <path d="M39.1531697,7.94884015 C41.9538291,9.70315767 44.3791172,12.0829067 46.1682243,14.8297829 C46.3425038,15.0976541 46.6374383,15.2435483 46.9396853,15.2435483 C47.1078711,15.2435483 47.2772757,15.1981058 47.4296179,15.1024375 C47.8561761,14.8357621 47.9804874,14.280886 47.7087088,13.863533 C45.7782282,10.8990115 43.1603795,8.33031751 40.1366911,6.43608511 C39.7101328,6.16821386 39.1458573,6.29258265 38.8752975,6.70993562 C38.6023002,7.1272886 38.7266115,7.68216476 39.1531697,7.94884015 Z" id="Path"></path>
                    <path d="M6.26796836,15.1048292 C6.42031059,15.2004975 6.59093387,15.24594 6.75911969,15.24594 C7.06014792,15.24594 7.3563012,15.09885 7.5305807,14.8309787 C9.31846901,12.0841026 11.7437572,9.70435352 14.5431978,7.95003601 C14.9697561,7.68336061 15.0940673,7.12848445 14.8222888,6.71113148 C14.5505103,6.29258265 13.9837972,6.17060556 13.5596765,6.43728096 C10.5372068,8.33031751 7.91935805,10.8990115 5.98887741,13.8659247 C5.71831763,14.2832777 5.84262888,14.8381538 6.26796836,15.1048292 Z" id="Path"></path>
                    <path d="M14.5480728,45.8669722 C11.7461947,44.1114588 9.31846901,41.7317098 7.5305807,38.981246 C7.25880217,38.5615014 6.69330785,38.441916 6.26796836,38.7073955 C5.84262888,38.9740709 5.71709889,39.5289471 5.98887741,39.9451042 C7.91935805,42.9132133 10.5396443,45.484299 13.5645514,47.3773355 C13.7168936,47.4730038 13.8875169,47.5184463 14.0557027,47.5184463 C14.3579497,47.5184463 14.6528842,47.3725521 14.8271637,47.103485 C15.0989423,46.6873279 14.9734123,46.1336476 14.5480728,45.8669722 Z" id="Path"></path>
                    <path d="M47.4308366,38.7085914 C47.0030597,38.4395243 46.4400028,38.5638931 46.169443,38.9824419 C44.3815547,41.7293181 41.9574853,44.1078712 39.1580446,45.8621888 C38.7314864,46.1288642 38.6071752,46.6837403 38.8789537,47.0998974 C39.0532332,47.3689645 39.3481677,47.5148587 39.6504147,47.5148587 C39.8186005,47.5148587 39.9880051,47.4694163 40.1403473,47.373748 C43.1615982,45.4807114 45.7794469,42.9132133 47.7087088,39.9474959 C47.9817061,39.5301429 47.8561761,38.9752668 47.4308366,38.7085914 Z" id="Path"></path>
                </g>
                <g id="noun_investors_1415384-copy-4" transform="translate(1.401869, 172.830769)" fill="#208389">
                    <path d="M26.2455179,30.7501844 C25.8116473,30.7501844 25.4374948,30.7155046 25.1340291,30.6449493 C24.8195947,30.5720022 24.5124728,30.4870966 24.2151008,30.39382 L23.995728,30.3244604 L23.9128538,30.5361266 C23.8385108,30.7250715 23.7714803,30.9235832 23.7129808,31.1268783 C23.6508252,31.3385445 23.6093881,31.5502106 23.5898883,31.7558974 L23.572826,31.9436465 L23.7544179,32.004635 C23.944541,32.0680153 24.1297892,32.1254163 24.3125998,32.1780338 C24.4990667,32.2330431 24.6940647,32.2796814 24.8939377,32.315557 C25.0938107,32.3526285 25.3095273,32.381329 25.5423062,32.3980709 C25.7555853,32.4160087 25.994458,32.4231839 26.2552678,32.4243797 L26.2552678,33.7721069 L26.4466097,33.812766 C26.5355775,33.8318996 26.6245454,33.8462499 26.7159507,33.8570125 C26.8049186,33.8653835 26.8938864,33.8713628 26.9828543,33.8713628 C27.0620722,33.8713628 27.1473839,33.8653835 27.2387892,33.8558167 C27.3301945,33.845054 27.4167249,33.8307038 27.4971616,33.8115701 L27.681191,33.7661277 L27.681191,32.2593519 C28.4234023,32.0871489 29.0181464,31.7654643 29.4483608,31.2990813 C29.9212311,30.7872559 30.1613224,30.1199694 30.1613224,29.3175516 C30.1613224,28.9157447 30.1040417,28.5629678 29.9894804,28.2711795 C29.8761378,27.980587 29.7152644,27.7246743 29.5117352,27.5094206 C29.3106434,27.2989504 29.0668959,27.1147889 28.7865862,26.9629154 C28.5172451,26.8182171 28.2162169,26.6771064 27.8920327,26.5431708 L27.383819,26.3327005 C27.1083843,26.2190944 26.8621992,26.1150551 26.6452639,26.0193868 C26.4453909,25.9320895 26.2723302,25.8328336 26.1309566,25.7252068 C26.0029891,25.6283426 25.9079276,25.5219116 25.8433345,25.3975428 C25.7811788,25.2791533 25.7494917,25.1320633 25.7494917,24.9610562 C25.7494917,24.6023001 25.864053,24.3475832 26.1017069,24.1837512 C26.361298,24.0031773 26.7525128,23.9122924 27.2607265,23.9122924 C27.6543788,23.9122924 28.0029378,23.9433846 28.2966536,24.005569 C28.5928069,24.0665576 28.8609292,24.1407005 29.0924894,24.2256061 L29.3118622,24.3057283 L29.4020488,24.0928663 C29.5617034,23.7173682 29.6665149,23.3287158 29.7140456,22.9376716 L29.7384204,22.7511184 L29.5592659,22.6853464 C29.2862687,22.5836989 28.9584282,22.4999891 28.5842757,22.4366088 C28.2881224,22.386383 27.9846567,22.3505074 27.6799723,22.328982 L27.6799723,21.1438909 L27.4959429,21.0984484 C27.1790711,21.0207179 26.7500754,21.0159345 26.435641,21.0984484 L26.2540491,21.1462826 L26.2540491,22.4019291 C25.5240252,22.5322771 24.9463435,22.8156945 24.5319726,23.2438101 C24.0737272,23.7173682 23.8409483,24.3296454 23.8409483,25.0662913 C23.8409483,25.4358101 23.8909166,25.7586907 23.9884156,26.0277578 C24.0883521,26.3016083 24.2333819,26.5431708 24.4198487,26.74527 C24.6014407,26.9425859 24.8159385,27.1147889 25.0584673,27.2570955 C25.2888088,27.3934228 25.5496187,27.5177916 25.8274909,27.6278101 L26.4697657,27.890898 C26.7805438,28.021246 27.0523223,28.1384397 27.2838825,28.2376956 C27.4983804,28.3309722 27.6726599,28.4326197 27.8042835,28.5390507 C27.9273761,28.6383066 28.0175627,28.7531086 28.0784995,28.8870442 C28.1406552,29.0221757 28.1711236,29.1967703 28.1711236,29.4072406 C28.1711236,29.8257894 28.0260938,30.1426907 27.7275031,30.3794697 C27.4179437,30.6258156 26.9194799,30.7501844 26.2455179,30.7501844 Z" id="Path"></path>
                    <path d="M12.1142535,25.9954697 C12.9320265,25.1763099 13.4402402,24.0581866 13.4402402,22.8240655 C13.4402402,20.3223393 11.3659485,18.2858003 8.81634905,18.2858003 C6.26674963,18.2858003 4.19245794,20.3223393 4.19245794,22.8240655 C4.19245794,24.0581866 4.70067159,25.1763099 5.51844463,25.9954697 C2.45088166,26.8337632 0.342465314,28.8212722 0.342465314,31.195042 L0.342465314,34.63073 C0.342465314,35.1258134 0.751961206,35.5276203 1.25651864,35.5276203 L16.3749607,35.5276203 C16.8795181,35.5276203 17.2890146,35.1258134 17.2890146,34.63073 L17.2890146,31.195042 C17.2902328,28.8212722 15.1818164,26.8337632 12.1142535,25.9954697 Z M6.0205646,22.8240655 C6.0205646,21.3101146 7.27464576,20.079581 8.81634905,20.079581 C10.3580523,20.079581 11.6121335,21.3101146 11.6121335,22.8240655 C11.6121335,24.3368205 10.3580523,25.5673541 8.81634905,25.5673541 C7.27464576,25.5673541 6.0205646,24.3368205 6.0205646,22.8240655 Z M8.81634905,27.3611348 C12.4189379,27.3611348 15.4621261,29.1166481 15.4621261,31.195042 L15.4621261,33.7338396 L2.17057197,33.7338396 L2.17057197,31.195042 C2.17057197,29.1166481 5.21376019,27.3611348 8.81634905,27.3611348 Z" id="Shape"></path>
                    <path d="M48.0450805,25.9966656 C48.8628535,25.1775057 49.3710672,24.0593824 49.3710672,22.8252613 C49.3710672,20.3235352 47.2967755,18.2869962 44.7471761,18.2869962 C42.1963579,18.2869962 40.1220662,20.3235352 40.1220662,22.8252613 C40.1220662,24.0593824 40.6302799,25.1775057 41.4480529,25.9966656 C38.3804899,26.8349591 36.2732923,28.8212722 36.2732923,31.1938462 L36.2732923,34.6295341 C36.2732923,35.1246176 36.6827882,35.5264244 37.1873457,35.5264244 L52.3057877,35.5264244 C52.8103452,35.5264244 53.2198411,35.1246176 53.2198411,34.6295341 L53.2198411,31.1938462 C53.2198411,28.8212722 51.1114247,26.8337632 48.0450805,25.9966656 Z M41.9501729,22.8252613 C41.9501729,21.3113104 43.204254,20.0807769 44.7471761,20.0807769 C46.2888793,20.0807769 47.5429605,21.3113104 47.5429605,22.8252613 C47.5429605,24.3380164 46.2888793,25.5685499 44.7471761,25.5685499 C43.204254,25.5685499 41.9501729,24.3380164 41.9501729,22.8252613 Z M44.7471761,27.3623306 C48.3485462,27.3623306 51.3917344,29.117844 51.3917344,31.1938462 L51.3917344,33.7326438 L38.1001802,33.7326438 L38.1001802,31.1938462 C38.1001802,29.117844 41.1433685,27.3623306 44.7471761,27.3623306 Z" id="Shape"></path>
                    <path d="M30.1466975,8.23106165 C30.9644706,7.4119018 31.4726842,6.29377851 31.4726842,5.05965739 C31.4726842,2.55793126 29.3983925,0.521392253 26.8487931,0.521392253 C24.2991937,0.521392253 22.224902,2.55793126 22.224902,5.05965739 C22.224902,6.29377851 22.7331157,7.4119018 23.5508887,8.23106165 C20.4833257,9.06935516 18.3749094,11.0556683 18.3749094,13.4294381 L18.3749094,16.865126 C18.3749094,17.3602095 18.7844053,17.7620164 19.2889627,17.7620164 L34.4086235,17.7620164 C34.913181,17.7620164 35.3226769,17.3602095 35.3226769,16.865126 L35.3226769,13.4294381 C35.3226769,11.0556683 33.2142605,9.06935516 30.1466975,8.23106165 Z M24.0530087,5.05965739 C24.0530087,3.54570649 25.3070898,2.31517294 26.8487931,2.31517294 C28.3904964,2.31517294 29.6445776,3.54570649 29.6445776,5.05965739 C29.6445776,6.57241244 28.3904964,7.80294599 26.8487931,7.80294599 C25.3070898,7.80294599 24.0530087,6.57241244 24.0530087,5.05965739 Z M26.8487931,9.59672668 C30.4526007,9.59672668 33.4957889,11.35224 33.4957889,13.4294381 L33.4957889,15.9682357 L20.2030161,15.9682357 L20.2030161,13.4294381 C20.2030161,11.35224 23.2462043,9.59672668 26.8487931,9.59672668 Z" id="Shape"></path>
                    <path d="M30.1454788,43.7622695 C30.9644706,42.9419138 31.4726842,41.8249864 31.4726842,40.5896694 C31.4726842,38.0867474 29.3983925,36.0514043 26.8475744,36.0514043 C24.297975,36.0514043 22.2236833,38.0867474 22.2236833,40.5896694 C22.2236833,41.8249864 22.7318969,42.9431097 23.54967,43.7610736 C20.482107,44.5993672 18.3736907,46.5856803 18.3736907,48.9606459 L18.3736907,52.3963339 C18.3736907,52.8914173 18.7831866,53.2932242 19.287744,53.2932242 L34.4074048,53.2932242 C34.9119622,53.2932242 35.3214587,52.8914173 35.3214587,52.3963339 L35.3214587,48.9606459 C35.3226769,46.5856803 33.2142605,44.5993672 30.1454788,43.7622695 Z M24.0517899,40.5884735 C24.0517899,39.0745226 25.3058711,37.8439891 26.8475744,37.8439891 C28.3904964,37.8439891 29.6445776,39.0745226 29.6445776,40.5884735 C29.6445776,42.1024244 28.3904964,43.332958 26.8475744,43.332958 C25.3058711,43.332958 24.0517899,42.1024244 24.0517899,40.5884735 Z M26.8475744,45.1267387 C30.4501632,45.1267387 33.4945702,46.882252 33.4945702,48.9594501 L33.4945702,51.4982477 L20.2030161,51.4982477 L20.2030161,48.9594501 C20.2030161,46.882252 23.2449855,45.1267387 26.8475744,45.1267387 Z" id="Shape"></path>
                    <path d="M39.1531697,7.94884015 C41.9538291,9.70315767 44.3791172,12.0829067 46.1682243,14.8297829 C46.3425038,15.0976541 46.6374383,15.2435483 46.9396853,15.2435483 C47.1078711,15.2435483 47.2772757,15.1981058 47.4296179,15.1024375 C47.8561761,14.8357621 47.9804874,14.280886 47.7087088,13.863533 C45.7782282,10.8990115 43.1603795,8.33031751 40.1366911,6.43608511 C39.7101328,6.16821386 39.1458573,6.29258265 38.8752975,6.70993562 C38.6023002,7.1272886 38.7266115,7.68216476 39.1531697,7.94884015 Z" id="Path"></path>
                    <path d="M6.26796836,15.1048292 C6.42031059,15.2004975 6.59093387,15.24594 6.75911969,15.24594 C7.06014792,15.24594 7.3563012,15.09885 7.5305807,14.8309787 C9.31846901,12.0841026 11.7437572,9.70435352 14.5431978,7.95003601 C14.9697561,7.68336061 15.0940673,7.12848445 14.8222888,6.71113148 C14.5505103,6.29258265 13.9837972,6.17060556 13.5596765,6.43728096 C10.5372068,8.33031751 7.91935805,10.8990115 5.98887741,13.8659247 C5.71831763,14.2832777 5.84262888,14.8381538 6.26796836,15.1048292 Z" id="Path"></path>
                    <path d="M14.5480728,45.8669722 C11.7461947,44.1114588 9.31846901,41.7317098 7.5305807,38.981246 C7.25880217,38.5615014 6.69330785,38.441916 6.26796836,38.7073955 C5.84262888,38.9740709 5.71709889,39.5289471 5.98887741,39.9451042 C7.91935805,42.9132133 10.5396443,45.484299 13.5645514,47.3773355 C13.7168936,47.4730038 13.8875169,47.5184463 14.0557027,47.5184463 C14.3579497,47.5184463 14.6528842,47.3725521 14.8271637,47.103485 C15.0989423,46.6873279 14.9734123,46.1336476 14.5480728,45.8669722 Z" id="Path"></path>
                    <path d="M47.4308366,38.7085914 C47.0030597,38.4395243 46.4400028,38.5638931 46.169443,38.9824419 C44.3815547,41.7293181 41.9574853,44.1078712 39.1580446,45.8621888 C38.7314864,46.1288642 38.6071752,46.6837403 38.8789537,47.0998974 C39.0532332,47.3689645 39.3481677,47.5148587 39.6504147,47.5148587 C39.8186005,47.5148587 39.9880051,47.4694163 40.1403473,47.373748 C43.1615982,45.4807114 45.7794469,42.9132133 47.7087088,39.9474959 C47.9817061,39.5301429 47.8561761,38.9752668 47.4308366,38.7085914 Z" id="Path"></path>
                </g>
                <ellipse id="Oval" stroke="#208389" stroke-width="4" fill="#FFFFFF" cx="150" cy="137.702564" rx="56.0747664" ry="56.2051282"></ellipse>
                <g id="noun_Construction_1973907" transform="translate(123.364486, 101.169231)" fill="#208389">
                    <path d="M15.0724893,42.3171374 C14.0316972,41.2732397 12.326934,41.2626052 11.2731363,42.293124 C10.7515424,42.8028946 10.461654,43.486248 10.4568624,44.2165991 C10.4524131,44.9466071 10.7334029,45.633391 11.2488363,46.1496795 L16.4486893,51.3616211 L13.3995554,51.3616211 L6.47611521,43.8471354 L6.47611521,31.2977214 C6.47611521,29.6867638 5.16836565,28.3759741 3.5611446,28.3759741 C1.95392355,28.3759741 0.646173995,29.6867639 0.646173995,31.2977214 L0.646173995,47.6361103 C0.646173995,48.8354092 1.04284549,50.0237305 1.76363075,50.981523 L9.50231811,61.2692158 L9.50231811,66.4533704 C9.50231811,66.8413587 9.8161643,67.1559345 10.2032527,67.1559345 L23.6192364,67.1559345 C24.0063247,67.1559345 24.3201709,66.8413587 24.3201709,66.4533704 L24.3201709,51.8772236 C24.3201709,51.6909481 24.2462442,51.5122196 24.114819,51.3804889 L15.0724893,42.3171374 Z M22.9183019,65.7508063 L10.9041873,65.7508063 L10.9041873,61.0338842 C10.9041873,60.8812275 10.8545606,60.7326873 10.7628367,60.610905 L2.88279883,50.1355644 C2.34443453,49.4199644 2.04804322,48.5321539 2.04804322,47.6361102 L2.04804322,31.2977214 C2.04804322,30.4613682 2.72673133,29.7811023 3.56114467,29.7811023 C4.39555801,29.7811023 5.07424612,30.4613682 5.07424612,31.2977214 L5.07424612,44.1219176 C5.07424612,44.2985878 5.14064327,44.46874 5.2600896,44.5984125 L12.4282409,52.378418 C12.6554971,52.6250701 12.978584,52.7667493 13.31365,52.7667493 L16.9230524,52.7667493 C17.4121322,52.7667493 17.8491896,52.4741287 18.0364021,52.0209611 C18.2236145,51.5677936 18.1212809,51.0511619 17.7752629,50.7043395 L12.2400016,45.15621 C11.991868,44.9074996 11.856678,44.5768005 11.8587315,44.2255184 C11.8611273,43.8735502 12.0007666,43.5445664 12.2519805,43.2989434 C12.7588575,42.8025516 13.5792385,42.8080404 14.0813239,43.3106071 L22.9183019,52.1681291 L22.9183019,65.7508063 L22.9183019,65.7508063 Z M48.3080142,28.3759741 C46.7007931,28.3759741 45.3930436,29.6867639 45.3930436,31.2977214 L45.3930436,43.8471355 L38.4696034,51.3616211 L35.4204695,51.3616211 L40.6203225,46.1496795 C41.1357559,45.6333909 41.4167457,44.9466071 41.4122964,44.2165991 C41.4075049,43.486248 41.1176164,42.8028947 40.5960225,42.293124 C39.5422248,41.2632913 37.8374616,41.2739258 36.7966696,42.3171374 L27.7543398,51.3804888 C27.6229145,51.5122196 27.5489878,51.690948 27.5489878,51.8772235 L27.5489878,66.4533703 C27.5489878,66.8413586 27.862834,67.1559345 28.2499224,67.1559345 L41.6659061,67.1559345 C42.0529944,67.1559345 42.3668406,66.8413586 42.3668406,66.4533703 L42.3668406,61.2692157 L50.105528,50.9815229 C50.8263132,50.0237305 51.2229847,48.8354092 51.2229847,47.6361102 L51.2229847,31.2977214 C51.2229847,29.6867638 49.9152353,28.3759741 48.3080142,28.3759741 Z M49.8211157,47.6361103 C49.8211157,48.532154 49.5247243,49.4199645 48.98636,50.1355644 L41.1063221,60.610905 C41.0145982,60.7326873 40.9649715,60.8812275 40.9649715,61.0338842 L40.9649715,65.7508063 L28.950857,65.7508063 L28.950857,52.168129 L37.787835,43.3106069 C38.2895782,42.8083833 39.1096169,42.8035807 39.6171784,43.2989432 C39.8683923,43.5445662 40.0080316,43.8735501 40.0104274,44.2255183 C40.0124809,44.5768003 39.8772909,44.9074994 39.6291573,45.1562099 L34.0938961,50.7043394 C33.7478781,51.0511618 33.6455444,51.5677934 33.8327569,52.020961 C34.0199694,52.4741285 34.4570268,52.7667492 34.9461066,52.7667492 L38.555509,52.7667492 C38.8905749,52.7667492 39.2136619,52.62507 39.4412603,52.3780748 L46.6090693,44.5984123 C46.7285157,44.4687399 46.7949128,44.2985876 46.7949128,44.1219174 L46.7949128,31.2977212 C46.7949128,30.461368 47.4736009,29.7811021 48.3080143,29.7811021 C49.1424276,29.7811021 49.8211157,30.461368 49.8211157,31.2977212 L49.8211157,47.6361103 L49.8211157,47.6361103 Z M40.1699173,3.82945463 L35.4006188,3.82945463 C35.0135304,3.82945463 34.6996842,4.14403045 34.6996842,4.53201873 L34.6996842,7.59741776 L26.390803,0.459342452 C26.1279525,0.233616264 25.7412064,0.233616264 25.4783559,0.459342452 L3.79627262,19.0862104 C3.57346577,19.2776317 3.49337853,19.5877479 3.59502771,19.8635592 C3.69701916,20.1390274 3.95918509,20.3222155 4.25249614,20.3222155 L10.9983069,20.3222155 L10.9983069,37.738464 C10.9983069,38.1264523 11.3121531,38.4410281 11.6992415,38.4410281 L22.3795953,38.4410281 L29.4895635,38.4410281 L40.1699173,38.4410281 C40.5570057,38.4410281 40.8708519,38.1264523 40.8708519,37.738464 L40.8708519,20.3222155 L47.6166627,20.3222155 C47.9099736,20.3222155 48.1721396,20.1390274 48.2741311,19.8635592 C48.3757803,19.5877479 48.295693,19.2776317 48.0728862,19.0862104 L40.8708519,12.8990237 L40.8708519,4.53201873 C40.8708519,4.14403045 40.5570057,3.82945463 40.1699173,3.82945463 Z M36.1015534,5.23458284 L39.4689827,5.23458284 L39.4689827,11.6946649 L36.1015534,8.80173369 L36.1015534,5.23458284 Z M28.7886289,37.0358999 L23.0805299,37.0358999 L23.0805299,26.052847 L28.7886289,26.052847 L28.7886289,37.0358999 L28.7886289,37.0358999 Z M45.7219489,18.9170873 L40.1699173,18.9170873 C39.7828289,18.9170873 39.4689827,19.2316631 39.4689827,19.6196514 L39.4689827,37.0358999 L30.1904981,37.0358999 L30.1904981,25.3502829 C30.1904981,24.9622946 29.8766519,24.6477188 29.4895635,24.6477188 L22.3795954,24.6477188 C21.992507,24.6477188 21.6786608,24.9622946 21.6786608,25.3502829 L21.6786608,37.0358999 L12.4001762,37.0358999 L12.4001762,20.3222155 L36.009145,20.3222155 C36.3962334,20.3222155 36.7100796,20.0076397 36.7100796,19.6196514 C36.7100796,19.2316631 36.3962334,18.9170873 36.009145,18.9170873 L11.6992416,18.9170873 L6.14721,18.9170873 L25.9345794,1.9179863 L45.7219489,18.9170873 Z M22.2892405,11.8283253 C22.2892405,13.8433945 23.9245263,15.482482 25.9345794,15.482482 C27.9446326,15.482482 29.5799184,13.8433945 29.5799184,11.8283253 C29.5799184,9.81359925 27.9446326,8.17451171 25.9345794,8.17451171 C23.9245263,8.17451171 22.2892405,9.81359925 22.2892405,11.8283253 Z M28.1780493,11.8283253 C28.1780493,13.068447 27.1714825,14.0773538 25.9345794,14.0773538 C24.6976764,14.0773538 23.6911096,13.068447 23.6911096,11.8283253 C23.6911096,10.5885467 24.6976764,9.57963992 25.9345794,9.57963992 C27.1714825,9.57963992 28.1780493,10.5885467 28.1780493,11.8283253 Z" id="Shape"></path>
                </g>
            </g>
        </g>
    </g>
</svg>