<?xml version="1.0" encoding="UTF-8"?>
<svg width="393px" height="242px" viewBox="0 0 393 242" version="1.1" xmlns="http://www.w3.org/2000/svg" xmlns:xlink="http://www.w3.org/1999/xlink">
    <!-- Generator: Sketch 55.2 (78181) - https://sketchapp.com -->
    <title>Platform</title>
    <desc>Created with Sketch.</desc>
    <g id="Home-Alternate" stroke="none" stroke-width="1" fill="none" fill-rule="evenodd">
        <g id="Capital-Raise" transform="translate(-270.000000, -1308.000000)">
            <g id="Platform" transform="translate(270.000000, 1308.000000)">
                <g id="Group" transform="translate(76.012346, 82.620000)">
                    <path d="M212.712008,7.72284375 L29.884375,7.72284375 C28.4780961,7.72284375 27.1552083,8.56575 26.5146123,9.871875 C26.2530671,10.418625 26.1203993,10.9729688 26.1203993,11.5197188 L26.1203993,143.062453 L94.990162,143.062453 L98.5494502,146.813766 L144.043142,146.813766 L147.602431,143.062453 L216.472193,143.062453 L216.472193,11.5197188 C216.472193,9.42384375 214.785417,7.72284375 212.712008,7.72284375 Z M212.681684,139.265578 L145.976302,139.265578 L142.417014,143.016891 L100.179369,143.016891 L96.620081,139.265578 L29.9109086,139.265578 L29.884375,11.5197188 L212.685475,11.5197188 L212.685475,139.265578 L212.681684,139.265578 Z" id="Shape" fill="#208389"></path>
                    <path d="M83.4315365,35.5651756 C81.0299777,35.5651756 79.0831296,37.5120237 79.0831296,39.9135825 L79.0831296,67.8164714 C79.0831296,70.2180302 81.0299777,72.1648782 83.4315365,72.1648782 L111.261796,72.1648782 C113.663355,72.1648782 115.610203,70.2180302 115.610203,67.8164714 L115.610203,39.9135825 C115.610203,37.5120237 113.663355,35.5651756 111.261796,35.5651756 L83.4315365,35.5651756 Z M92.4957745,57.3723737 C87.8811327,57.3723737 84.1413116,53.6256646 84.1413116,49.0052007 C84.1413116,44.3847368 87.8811327,40.6380277 92.4957745,40.6380277 C97.1104163,40.6380277 100.850237,44.3847368 100.850237,49.0052007 C100.850237,53.6256646 97.1104163,57.3723737 92.4957745,57.3723737 Z M112.707838,46.9217835 L114.573796,46.3695841 L114.573796,55.9850307 L113.640159,56.3426117 C107.433987,58.7195622 102.521301,63.7133913 100.241503,69.9679422 L99.8931367,70.9236745 L90.3268038,70.9236745 L90.8484872,69.0753533 C93.8470908,58.4513179 102.140812,50.0489209 112.707838,46.9217835 Z M83.4315365,83.4467974 C81.0299777,83.4467974 79.0831296,85.3936455 79.0831296,87.7952043 L79.0831296,115.698093 C79.0831296,118.099652 81.0299777,120.0465 83.4315365,120.0465 L111.261796,120.0465 C113.663355,120.0465 115.610203,118.099652 115.610203,115.698093 L115.610203,87.7952043 C115.610203,85.3936455 113.663355,83.4467974 111.261796,83.4467974 L83.4315365,83.4467974 Z M92.4957745,114.854626 C87.8811327,114.854626 84.1413116,111.107917 84.1413116,106.487453 C84.1413116,101.866989 87.8811327,98.12028 92.4957745,98.12028 C97.1104163,98.12028 100.850237,101.866989 100.850237,106.487453 C100.850237,111.107917 97.1104163,114.854626 92.4957745,114.854626 Z M113.640159,99.4022681 L114.573796,99.7598491 L114.573796,109.375296 L112.707838,108.823096 C101.991812,105.651865 93.6230722,97.0599161 90.7306963,86.2408522 L90.2417579,84.411956 L99.7675252,84.411956 L100.105116,85.3921299 C102.319536,91.821559 107.302359,96.9749044 113.640159,99.4022681 Z M131.330796,35.4735 C128.929237,35.4735 126.982389,37.4203481 126.982389,39.8219069 L126.982389,67.7247957 C126.982389,70.1263545 128.929237,72.0732026 131.330796,72.0732026 L159.161056,72.0732026 C161.562615,72.0732026 163.509463,70.1263545 163.509463,67.7247957 L163.509463,39.8219069 C163.509463,37.4203481 161.562615,35.4735 159.161056,35.4735 L131.330796,35.4735 Z M154.118593,57.280698 C149.503951,57.280698 145.76413,53.533989 145.76413,48.9135251 C145.76413,44.2930612 149.503951,40.5463521 154.118593,40.5463521 C158.733234,40.5463521 162.473056,44.2930612 162.473056,48.9135251 C162.473056,53.533989 158.733234,57.280698 154.118593,57.280698 Z M129.03104,55.9775095 L128.031936,55.6486861 L128.031936,46.1420777 L129.845841,46.6063446 C140.93501,49.4446062 149.737044,58.0505586 152.84876,69.0753533 L153.370444,70.9236745 L143.804111,70.9236745 L143.455744,69.9679422 C141.046596,63.3585234 135.705806,58.1742975 129.03104,55.9775095 Z M131.330796,83.1575882 C128.929237,83.1575882 126.982389,85.1044363 126.982389,87.5059951 L126.982389,115.408884 C126.982389,117.810443 128.929237,119.757291 131.330796,119.757291 L159.161056,119.757291 C161.562615,119.757291 163.509463,117.810443 163.509463,115.408884 L163.509463,87.5059951 C163.509463,85.1044363 161.562615,83.1575882 159.161056,83.1575882 L131.330796,83.1575882 Z M154.118593,114.565417 C149.503951,114.565417 145.76413,110.818708 145.76413,106.198244 C145.76413,101.57778 149.503951,97.8310709 154.118593,97.8310709 C158.733234,97.8310709 162.473056,101.57778 162.473056,106.198244 C162.473056,110.818708 158.733234,114.565417 154.118593,114.565417 Z M128.031936,109.602802 L128.031936,100.096194 L129.03104,99.7673703 C135.840285,97.5263227 141.254503,92.1792853 143.592131,85.3921299 L143.929722,84.411956 L153.45549,84.411956 L152.966551,86.2408522 C149.966453,97.4628562 141.086189,106.26158 129.845841,109.138535 L128.031936,109.602802 Z" id="Combined-Shape" stroke="#208389" stroke-width="2.907"></path>
                    <path d="M223.935706,11.5197188 C223.935706,5.3004375 218.90191,0.243 212.712008,0.243 L29.8805845,0.243 C25.2599537,0.243 21.1699942,3.04129688 19.4604745,7.37732812 C18.9260127,8.72901562 18.6568866,10.1224688 18.6568866,11.5197187 L18.6568866,139.265578 L0,139.265578 L0,148.913438 L12.4177083,159.22575 L228.647309,159.22575 L242.592593,148.977984 L242.592593,139.261781 L223.935706,139.261781 L223.935706,11.5197188 Z M238.802083,143.062453 L238.802083,147.060563 L227.404022,155.428875 L13.7898727,155.428875 L3.79050926,147.125109 L3.79050926,143.062453 L22.4473958,143.062453 L22.4473958,11.5197188 C22.4473958,10.6046719 22.6293403,9.67823438 22.9856481,8.77078125 C24.1228009,5.89654688 26.8292245,4.039875 29.8805845,4.039875 L212.712008,4.039875 C216.809549,4.039875 220.145197,7.3963125 220.145197,11.5197188 L220.145197,143.062453 L238.802083,143.062453 Z" id="Shape" fill="#208389"></path>
                </g>
                <g id="noun_money-transaction-on-cloud-base_2297414" transform="translate(0.000000, 144.180000)" fill="#208389">
                    <path d="M30.6466706,26.6050532 L16.344891,26.6050532 C14.6530876,26.606903 13.2820706,27.9802225 13.2802239,29.674867 L13.2802239,58.3264628 C13.2820706,60.0211073 14.6530876,61.3944268 16.344891,61.3962766 L30.6466706,61.3962766 C32.338474,61.3944268 33.709491,60.0211073 33.7113377,58.3264628 L33.7113377,29.674867 C33.709491,27.9802225 32.338474,26.606903 30.6466706,26.6050532 Z M30.6466706,28.6515957 C31.2105569,28.6523286 31.6674947,29.1100337 31.6682263,29.674867 L31.6682263,32.64175 C29.6639826,32.2280084 28.0978097,30.6592054 27.6847618,28.6515957 L30.6466706,28.6515957 Z M15.3233353,29.674867 C15.3240669,29.1100337 15.7810047,28.6523286 16.344891,28.6515957 L19.3067998,28.6515957 C18.8937518,30.6592054 17.327579,32.2280084 15.3233353,32.64175 L15.3233353,29.674867 Z M16.344891,59.349734 C15.7810047,59.3490012 15.3240669,58.891296 15.3233353,58.3264628 L15.3233353,55.3595798 C17.327579,55.7733214 18.8937518,57.3421244 19.3067998,59.349734 L16.344891,59.349734 Z M21.3711186,59.349734 C20.9144733,56.2129259 18.4548844,53.7492064 15.3233353,53.2917941 L15.3233353,34.7095357 C18.4548844,34.2521234 20.9144733,31.7884039 21.3711186,28.6515957 L25.620443,28.6515957 C26.0770883,31.7884039 28.5366772,34.2521234 31.6682263,34.7095357 L31.6682263,53.2917941 C28.5366772,53.7492064 26.0770883,56.2129259 25.620443,59.349734 L21.3711186,59.349734 Z M31.6682263,58.3264628 C31.6674947,58.891296 31.2105569,59.3490012 30.6466706,59.349734 L27.6847618,59.349734 C28.0978097,57.3421244 29.6639826,55.7733214 31.6682263,55.3595798 L31.6682263,58.3264628 Z" id="Shape"></path>
                    <path d="M29.6251149,44.0006649 C29.6251149,40.6098422 26.8809186,37.8610372 23.4957808,37.8610372 C20.110643,37.8610372 17.3664467,40.6098422 17.3664467,44.0006649 C17.3664467,47.3914876 20.110643,50.1402926 23.4957808,50.1402926 C26.8793852,50.1365874 29.6214159,47.3899517 29.6251149,44.0006649 L29.6251149,44.0006649 Z M19.4095581,44.0006649 C19.4095581,41.7401164 21.2390223,39.9075798 23.4957808,39.9075798 C25.7525393,39.9075798 27.5820035,41.7401164 27.5820035,44.0006649 C27.5820035,46.2612134 25.7525393,48.09375 23.4957808,48.09375 C21.2400911,48.0911673 19.4121364,46.2601427 19.4095581,44.0006649 L19.4095581,44.0006649 Z" id="Shape"></path>
                    <path d="M45.9700059,32.7446809 C45.9700059,31.0492695 44.5979077,29.674867 42.9053388,29.674867 C41.21277,29.674867 39.8406718,31.0492695 39.8406718,32.7446809 C39.8406718,34.4400922 41.21277,35.8144947 42.9053388,35.8144947 C44.5971422,35.8126449 45.9681592,34.4393254 45.9700059,32.7446809 Z M41.8837832,32.7446809 C41.8837832,32.1795437 42.3411492,31.7214096 42.9053388,31.7214096 C43.4695285,31.7214096 43.9268945,32.1795437 43.9268945,32.7446809 C43.9268945,33.309818 43.4695285,33.7679521 42.9053388,33.7679521 C42.3414526,33.7672193 41.8845148,33.3095141 41.8837832,32.7446809 L41.8837832,32.7446809 Z" id="Shape"></path>
                    <path d="M50.0562287,42.9773936 L50.0562287,22.5119681 C50.0551024,21.3821615 49.1410297,20.4665536 48.0131173,20.4654255 L37.7975604,20.4654255 C36.669648,20.4665536 35.7555753,21.3821615 35.754449,22.5119681 L35.754449,42.9773936 C35.7555753,44.1072002 36.669648,45.0228081 37.7975604,45.0239362 L48.0131173,45.0239362 C49.1410297,45.0228081 50.0551024,44.1072002 50.0562287,42.9773936 Z M48.0131173,22.5119681 L48.0131173,24.3831322 C47.141469,24.0721231 46.4555779,23.3850802 46.1450903,22.5119681 L48.0131173,22.5119681 Z M37.7975604,22.5119681 L39.6655874,22.5119681 C39.3550998,23.3850802 38.6692087,24.0721231 37.7975604,24.3831322 L37.7975604,22.5119681 Z M37.7975604,42.9773936 L37.7975604,41.1062295 C38.6692087,41.4172386 39.3550998,42.1042815 39.6655874,42.9773936 L37.7975604,42.9773936 Z M41.7805345,42.9773936 C41.3674517,40.9700774 39.8015112,39.4015071 37.7975604,38.9877305 L37.7975604,26.5016312 C39.8015112,26.0878546 41.3674517,24.5192843 41.7805345,22.5119681 L44.0301432,22.5119681 C44.443226,24.5192843 46.0091665,26.0878546 48.0131173,26.5016312 L48.0131173,38.9877305 C46.0091665,39.4015071 44.443226,40.9700774 44.0301432,42.9773936 L41.7805345,42.9773936 Z M48.0131173,41.1062295 L48.0131173,42.9773936 L46.1450903,42.9773936 C46.4555779,42.1042815 47.141469,41.4172386 48.0131173,41.1062295 Z" id="Shape"></path>
                    <path d="M11.2371126,36.837766 L9.19400118,36.837766 C4.03834243,36.837766 0,33.241827 0,28.6515957 C0.00578557877,23.9414159 3.55407663,19.992513 8.22980585,19.492622 C8.72679287,15.3797073 12.2089073,12.2845127 16.344891,12.2792553 L18.4269134,12.2792553 C18.9608389,5.3498809 24.7298954,-3.62323874e-05 31.6682263,-3.62323874e-05 C38.6065572,-3.62323874e-05 44.3756137,5.3498809 44.9095392,12.2792553 L49.034673,12.2792553 C55.9413373,12.4311745 61.4235903,18.1514452 61.2933412,25.0701463 C61.095893,30.3771212 57.4909879,34.94529 52.3816674,36.3631011 L51.8170127,34.3965067 C56.0576406,33.2403944 59.0639178,29.4684577 59.2502298,25.0701463 C59.381197,19.2813925 54.8132347,14.4769771 49.034673,14.3257979 L42.9053388,14.3257979 L42.9053388,13.3025266 C42.9053388,7.08601826 37.8743122,2.04654255 31.6682263,2.04654255 C25.4621404,2.04654255 20.4311137,7.08601826 20.4311137,13.3025266 L20.4311137,14.3257979 L16.344891,14.3257979 C12.9612866,14.3295031 10.2192558,17.0761387 10.2155569,20.4654255 L10.2155569,21.4886968 L9.19400118,21.4886968 C5.24651048,21.4931349 2.04754201,24.6974757 2.04311137,28.6515957 C2.04311137,32.0941464 5.18409886,34.7912234 9.19400118,34.7912234 L11.2371126,34.7912234 L11.2371126,36.837766 Z" id="Path"></path>
                </g>
                <g id="noun_Email_527851" transform="translate(344.481481, 150.660000)" fill="#208389">
                    <path d="M41.1554543,18.6616406 L41.1554543,0 L16.7635272,0 L6.98401331,9.78644531 L6.98401331,18.6616406 L0,18.6616406 L0,48.2203125 L48.1394676,48.2203125 L48.1394676,18.6616406 L41.1554543,18.6616406 Z M15.3515625,31.741875 L1.5541088,45.5625 L1.5541088,21.0346875 L15.3515625,31.741875 Z M16.583478,32.7100781 L24.0697338,38.5192969 L31.5559896,32.7100781 L45.4861111,46.6635937 L2.65335648,46.6635937 L16.583478,32.7100781 Z M32.7879051,31.741875 L46.5853588,21.0251953 L46.5853588,45.5625 L32.7879051,31.741875 Z M45.0975839,20.2183594 L41.1554543,23.2843359 L41.1554543,20.2183594 L45.0975839,20.2183594 Z M39.6013455,24.4898438 L24.0697338,36.5449219 L8.53812211,24.4898438 L8.53812211,10.8875391 L17.8532986,10.8875391 L17.8532986,1.55671875 L39.5918692,1.55671875 L39.5918692,24.4898438 L39.6013455,24.4898438 Z M9.63736979,9.33082031 L16.3086661,2.6578125 L16.3086661,9.33082031 L9.63736979,9.33082031 Z M6.98401331,23.2843359 L3.04188368,20.2183594 L6.98401331,20.2183594 L6.98401331,23.2843359 Z" id="Shape"></path>
                    <rect id="Rectangle" x="23.2926794" y="29.5586719" width="1.5541088" height="1.55671875"></rect>
                    <rect id="Rectangle" x="20.1844618" y="29.5586719" width="1.5541088" height="1.55671875"></rect>
                    <rect id="Rectangle" x="26.400897" y="29.5586719" width="1.5541088" height="1.55671875"></rect>
                    <path d="M37.2701823,3.89179687 L24.8467882,3.89179687 L24.8467882,19.4494922 L37.2701823,19.4494922 L37.2701823,3.89179687 L37.2701823,3.89179687 Z M35.7160735,17.8927734 L26.400897,17.8927734 L26.400897,5.44851562 L35.7160735,5.44851562 L35.7160735,17.8927734 Z" id="Shape"></path>
                    <rect id="Rectangle" x="10.8692853" y="13.2226172" width="11.6463397" height="1.55671875"></rect>
                    <rect id="Rectangle" x="10.8692853" y="17.8927734" width="11.6463397" height="1.55671875"></rect>
                    <rect id="Rectangle" x="10.8692853" y="22.5534375" width="26.400897" height="1.55671875"></rect>
                </g>
                <g id="noun_stock-market_477741" transform="translate(61.456790, 67.230000) rotate(30.000000) translate(-61.456790, -67.230000) translate(32.345679, 45.360000)" fill="#208389">
                    <path d="M38.4522589,16.2556119 L39.156044,16.3208955 L38.3242979,21.3477313 C38.2603175,21.7394328 37.9404151,22.0005672 37.5565324,22.0005672 C37.4925519,22.0005672 37.4925519,22.0005672 37.4285714,22.0005672 C36.9807082,21.9352836 36.7247863,21.5435821 36.7887668,21.086597 L37.1726496,18.8016716 L22.3291819,29.2470448 L17.1467643,26.1134328 L6.65396825,35.1225672 C6.52600733,35.2531343 6.33406593,35.3184179 6.14212454,35.3184179 C5.88620269,35.3184179 5.63028083,35.2531343 5.5023199,35.0572836 C5.24639805,34.6655821 5.31037851,34.1433134 5.63028083,33.8821791 L17.0188034,24.1549254 L22.201221,27.2885373 L36.2129426,17.496 L33.781685,17.0390149 C33.3338217,16.9084478 33.0778999,16.5167463 33.1418803,16.0597612 C33.2698413,15.6027761 33.6537241,15.3416418 34.1015873,15.4069254 L38.4522589,16.2556119 Z M52.1440781,6.52835821 C55.15116,6.52835821 57.5824176,9.00913433 57.646398,12.0774627 L57.646398,37.6686269 C57.646398,40.7369552 55.2151404,43.2177313 52.2080586,43.2177313 L5.43833944,43.2177313 C2.43125763,43.2177313 3.55271368e-15,40.7369552 3.55271368e-15,37.6686269 L3.55271368e-15,12.0774627 C3.55271368e-15,9.00913433 2.43125763,6.52835821 5.43833944,6.52835821 L19.7699634,6.52835821 L19.7699634,2.93776119 C19.7699634,1.43623881 20.9855922,0.195850746 22.4571429,0.195850746 L35.1252747,0.195850746 C36.6608059,0.195850746 37.8764347,1.43623881 37.8764347,2.93776119 L37.8764347,6.52835821 L52.1440781,6.52835821 Z M21.3054945,2.93776119 L21.3054945,6.52835821 L36.2769231,6.52835821 L36.2769231,2.93776119 C36.2769231,2.28492537 35.7650794,1.76265672 35.1252747,1.76265672 L22.4571429,1.76265672 C21.8173382,1.76265672 21.3054945,2.28492537 21.3054945,2.93776119 Z M55.982906,37.6686269 L56.0468864,37.6686269 L56.0468864,12.0774627 C56.0468864,9.92310448 54.3194139,8.16044776 52.2080586,8.16044776 L5.43833944,8.16044776 C3.32698413,8.16044776 1.5995116,9.92310448 1.5995116,12.0774627 L1.5995116,37.6686269 C1.5995116,39.8229851 3.32698413,41.5856418 5.43833944,41.5856418 L52.1440781,41.5856418 C54.2554335,41.5856418 55.982906,39.8229851 55.982906,37.6686269 Z M50.5445665,35.3184179 C50.0967033,35.3184179 49.776801,34.9267164 49.776801,34.5350149 L49.776801,20.1726269 C49.776801,19.7156418 50.1606838,19.3892239 50.5445665,19.3892239 C50.9284493,19.3892239 51.3123321,19.7809254 51.3123321,20.1726269 L51.3123321,34.5350149 C51.3763126,34.9267164 50.9924298,35.3184179 50.5445665,35.3184179 Z M46.0659341,35.3184179 C45.6180708,35.3184179 45.2981685,34.9267164 45.2981685,34.5350149 L45.2981685,26.244 C45.2981685,25.7870149 45.6820513,25.460597 46.0659341,25.460597 C46.4498168,25.460597 46.8336996,25.8522985 46.8336996,26.244 L46.8336996,34.5350149 C46.8976801,34.9267164 46.5137973,35.3184179 46.0659341,35.3184179 Z M41.5873016,35.3184179 C41.1394383,35.3184179 40.819536,34.9267164 40.819536,34.5350149 L40.819536,30.4221493 C40.819536,29.9651642 41.2034188,29.6387463 41.5873016,29.6387463 C41.9711844,29.6387463 42.3550672,30.0304478 42.3550672,30.4221493 L42.3550672,34.5350149 C42.4190476,34.9267164 42.0351648,35.3184179 41.5873016,35.3184179 Z M37.4925519,35.3184179 C37.0446886,35.3184179 36.7247863,34.9267164 36.7247863,34.5350149 L36.7247863,26.9621194 C36.7247863,26.5051343 37.1086691,26.1787164 37.4925519,26.1787164 C37.9404151,26.1787164 38.3242979,26.5704179 38.3242979,26.9621194 L38.3242979,34.5350149 C38.3242979,34.9267164 37.9404151,35.3184179 37.4925519,35.3184179 Z M32.6940171,35.3184179 C32.2461538,35.3184179 31.9262515,34.9267164 31.9262515,34.5350149 L31.9262515,31.0749851 C31.9262515,30.618 32.3101343,30.2915821 32.6940171,30.2915821 C33.0778999,30.2915821 33.4617827,30.6832836 33.4617827,31.0749851 L33.4617827,34.5350149 C33.5257631,34.9267164 33.1418803,35.3184179 32.6940171,35.3184179 Z" id="Combined-Shape"></path>
                </g>
                <g id="noun_Housing-Partnership_1874899" transform="translate(174.666667, 0.000000)" fill="#208389">
                    <path d="M55.7030789,33.6665455 L50.6632765,33.6665455 C50.132771,33.6665455 49.7791007,34.02 49.7791007,34.5501818 L49.7791007,35.4338182 C48.0991665,34.992 45.9771445,34.3734545 44.5624631,33.7549091 L44.5624631,21.8258182 C45.7118917,22.0909091 46.8613203,21.6490909 47.568661,20.7654545 C48.5412545,19.5283636 48.2760017,17.7610909 47.0381555,16.7890909 L41.9983531,12.9894545 L41.9983531,4.15309091 C41.9983531,3.62290909 41.6446828,3.26945455 41.1141773,3.26945455 L33.3334298,3.26945455 C32.8029242,3.26945455 32.4492539,3.62290909 32.4492539,4.15309091 L32.4492539,5.74363636 L26.1716053,0.972 C25.1990119,0.265090909 23.7843305,0.265090909 22.7233195,0.972 L1.14942861,16.7890909 C-0.0884175856,17.7610909 -0.353670342,19.5283636 0.530505513,20.7654545 C1.06101103,21.4723636 1.94518688,21.9141818 2.82936274,21.9141818 C3.09461549,21.9141818 3.27145067,21.9141818 3.53670342,21.8258182 L3.53670342,43.6516364 L1.41468137,43.6516364 C0.884175856,43.6516364 0.530505513,44.0050909 0.530505513,44.5352727 L0.530505513,48.0698182 C0.530505513,48.6 0.884175856,48.9534545 1.41468137,48.9534545 L18.7445281,48.9534545 L18.7445281,53.3716364 C18.7445281,53.9018182 19.0981985,54.2552727 19.628704,54.2552727 L24.756924,54.2552727 C25.2874295,54.2552727 25.6410998,53.9018182 25.6410998,53.3716364 L25.6410998,50.7207273 C26.0831877,50.8974545 26.5252757,51.0741818 26.7905284,51.4276364 C26.7905284,51.4276364 26.878946,51.516 26.878946,51.516 C27.939957,52.3996364 33.4218473,56.8178182 35.0133639,57.4363636 C36.3396277,58.0549091 37.8427266,57.9665455 38.4616497,56.5527273 C40.1415838,57.2596364 41.37943,56.6410909 41.9099356,55.4923636 C43.8551224,56.4643636 45.2698038,55.7574545 45.6234741,54.0785455 C47.568661,54.6970909 49.1601776,53.8134545 49.2485952,51.1625455 C49.2485952,50.8974545 49.1601776,50.7207273 49.07176,50.544 L48.8949248,50.3672727 C49.07176,50.2789091 49.3370127,50.2789091 49.6906831,50.2789091 L49.6906831,53.3716364 C49.6906831,53.9018182 50.0443534,54.2552727 50.5748589,54.2552727 L55.7030789,54.2552727 C56.2335844,54.2552727 56.5872548,53.9018182 56.5872548,53.3716364 L56.5872548,34.5501818 C56.5872548,34.02 56.1451668,33.6665455 55.7030789,33.6665455 Z M34.0407704,5.03672727 L40.0531663,5.03672727 L40.0531663,11.664 L34.0407704,7.15745455 L34.0407704,5.03672727 Z M2.03360447,19.7050909 C1.67993413,19.2632727 1.76835171,18.5563636 2.21043964,18.2029091 L23.6074953,2.38581818 C23.7843305,2.20909091 24.0495833,2.20909091 24.2264184,2.20909091 C24.4916712,2.20909091 24.6685064,2.29745455 24.8453415,2.38581818 L32.5376715,8.21781818 C32.5376715,8.21781818 32.5376715,8.30618182 32.6260891,8.30618182 L40.4068366,14.2265455 C40.4952542,14.2265455 40.4952542,14.3149091 40.5836718,14.3149091 L45.8003093,18.2912727 C46.2423972,18.6447273 46.3308148,19.3516364 45.9771445,19.7934545 C45.6234741,20.2352727 44.9161335,20.3236364 44.4740455,19.9701818 L44.1203752,19.7050909 C44.1203752,19.7050909 44.1203752,19.7050909 44.1203752,19.7050909 L24.8453415,5.03672727 C24.756924,4.94836364 24.6685064,4.94836364 24.5800888,4.94836364 C24.4032536,4.86 24.2264184,4.86 23.9611657,4.94836364 C23.8727481,4.94836364 23.7843305,5.03672727 23.6959129,5.03672727 L3.97879135,19.6167273 C3.97879135,19.6167273 3.97879135,19.6167273 3.97879135,19.6167273 L3.53670342,19.9701818 C3.09461549,20.3236364 2.38727481,20.1469091 2.03360447,19.7050909 Z M5.39347272,20.7654545 L24.2264184,6.804 L42.6172762,20.7654545 L42.6172762,32.7829091 C42.6172762,32.7829091 42.6172762,32.7829091 42.6172762,32.7829091 C41.9983531,32.4294545 36.2512101,29.7785455 33.2450122,32.076 L27.0557812,37.1127273 L25.6410998,36.5825455 L25.6410998,34.5501818 C25.6410998,34.02 25.2874295,33.6665455 24.756924,33.6665455 L19.7171216,33.6665455 C19.1866161,33.6665455 18.8329457,34.02 18.8329457,34.5501818 L18.8329457,43.6516364 L5.39347272,43.6516364 L5.39347272,20.7654545 Z M2.29885722,47.1861818 L2.29885722,45.4189091 L4.42087928,45.4189091 L18.7445281,45.4189091 L18.7445281,47.1861818 L2.29885722,47.1861818 Z M23.8727481,52.5763636 L20.6012974,52.5763636 C20.6012974,52.7530909 20.6012974,35.6105455 20.6012974,35.4338182 L23.8727481,35.4338182 C23.8727481,39.2334545 23.8727481,48.8650909 23.8727481,52.5763636 Z M46.7729028,52.5763636 C46.2423972,52.5763636 45.6234741,52.2229091 45.446639,52.1345455 L43.7667048,49.7487273 C43.5014521,49.3069091 42.9709466,49.2185455 42.5288587,49.4836364 C42.0867707,49.7487273 41.9983531,50.2789091 42.2636059,50.7207273 L43.94354,53.1065455 C43.94354,53.5483636 43.7667048,54.2552727 43.4130345,54.2552727 C42.882529,54.2552727 42.0867707,53.7250909 41.821518,53.46 C41.821518,53.46 41.821518,53.46 41.821518,53.46 L40.1415838,50.9858182 C39.8763311,50.544 39.3458256,50.4556364 38.9037376,50.7207273 C38.4616497,50.9858182 38.3732321,51.516 38.6384849,51.9578182 L40.318419,54.3436364 C40.1415838,55.0505455 39.8763311,55.0505455 39.7879135,55.0505455 C39.3458256,55.0505455 38.7269025,54.6970909 38.3732321,54.5203636 L36.693298,52.1345455 C36.4280452,51.6927273 35.8975397,51.6043636 35.4554518,51.8694545 C35.0133639,52.1345455 34.9249463,52.6647273 35.1901991,53.1065455 L36.8701332,55.4923636 C36.7817156,56.2876364 36.6048804,56.1992727 35.632287,55.8458182 C34.6596935,55.4923636 30.4156494,52.2229091 27.939957,50.2789091 C27.2326164,49.572 26.2600229,49.2185455 25.5526822,48.9534545 L25.5526822,40.0287273 C26.0831877,41.796 27.939957,43.1214545 30.3272318,43.2098182 C30.3272318,43.2098182 30.3272318,43.2098182 30.3272318,43.2098182 C34.2176056,43.2098182 36.9585508,39.9403636 37.4890563,39.9403636 C37.4890563,39.9403636 37.4890563,39.9403636 37.4890563,39.9403636 L47.4802434,51.516 C47.3918259,52.5763636 46.9497379,52.5763636 46.7729028,52.5763636 Z M47.7454962,49.0418182 C47.7454962,49.0418182 47.7454962,49.0418182 47.7454962,49.0418182 L38.6384849,38.5265455 C38.196397,37.9963636 36.693298,37.908 35.8091221,38.88 C35.8091221,38.88 33.1565946,41.4425455 30.4156494,41.4425455 C28.2936274,41.4425455 27.3210339,39.9403636 27.3210339,39.4101818 C27.3210339,39.2334545 26.7905284,39.6752727 34.3944408,33.4898182 C36.1627925,32.1643636 40.2300014,33.6665455 41.821518,34.3734545 C43.3246169,35.5221818 47.9223314,36.7592727 49.6906831,37.2010909 L49.6906831,48.6 C49.07176,48.5116364 48.3644193,48.6 47.7454962,49.0418182 Z M54.818903,52.5763636 L51.5474524,52.5763636 C51.5474524,46.656 51.5474524,41.4425455 51.5474524,35.4338182 L54.818903,35.4338182 L54.818903,52.5763636 Z" id="Shape"></path>
                    <path d="M24.0495833,20.412 C26.7021108,20.412 28.9125505,18.2029091 28.9125505,15.552 C28.9125505,12.9010909 26.7021108,10.692 24.0495833,10.692 C21.3970557,10.692 19.1866161,12.9010909 19.1866161,15.552 C19.1866161,18.2029091 21.3086381,20.412 24.0495833,20.412 Z M24.0495833,12.4592727 C25.7295174,12.4592727 27.1441988,13.8730909 27.1441988,15.552 C27.1441988,17.2309091 25.7295174,18.6447273 24.0495833,18.6447273 C22.3696491,18.6447273 20.9549678,17.2309091 20.9549678,15.552 C20.9549678,13.8730909 22.2812316,12.4592727 24.0495833,12.4592727 Z" id="Shape"></path>
                    <path d="M17.5066819,21.2072727 L10.875363,21.2072727 C10.3448575,21.2072727 9.99118717,21.5607273 9.99118717,22.0909091 L9.99118717,28.7181818 C9.99118717,29.2483636 10.3448575,29.6018182 10.875363,29.6018182 L17.5066819,29.6018182 C18.0371875,29.6018182 18.3908578,29.2483636 18.3908578,28.7181818 L18.3908578,22.0909091 C18.3908578,21.6490909 18.0371875,21.2072727 17.5066819,21.2072727 Z M16.6225061,27.8345455 L11.7595389,27.8345455 L11.7595389,22.9745455 L16.6225061,22.9745455 L16.6225061,27.8345455 Z" id="Shape"></path>
                    <path d="M30.504067,29.6018182 L37.1353859,29.6018182 C37.6658914,29.6018182 38.0195618,29.2483636 38.0195618,28.7181818 L38.0195618,22.0909091 C38.0195618,21.5607273 37.6658914,21.2072727 37.1353859,21.2072727 L30.504067,21.2072727 C29.9735615,21.2072727 29.6198912,21.5607273 29.6198912,22.0909091 L29.6198912,28.7181818 C29.6198912,29.2483636 29.9735615,29.6018182 30.504067,29.6018182 Z M31.3882429,22.9745455 L36.2512101,22.9745455 L36.2512101,27.8345455 L31.3882429,27.8345455 L31.3882429,22.9745455 Z" id="Shape"></path>
                </g>
                <g id="noun_investor_2664880" transform="translate(334.777778, 67.230000) rotate(-49.000000) translate(-334.777778, -67.230000) translate(310.518519, 42.120000)" fill="#208389">
                    <path d="M3.22613326,50.2043112 L45.2769089,50.2043112 C46.9836464,50.2043112 48.3721891,48.7971 48.3721891,47.0665417 L48.3721891,3.13776945 C48.3721891,1.40760337 46.9836464,0 45.2769089,0 L3.22613326,0 C1.51939571,0 0.130852974,1.40760337 0.130852974,3.13776945 L0.130852974,47.0665417 C0.130852974,48.7971 1.51939571,50.2043112 3.22613326,50.2043112 Z M1.67849312,3.13776945 C1.67849312,2.27252952 2.37260972,1.56888472 3.22613326,1.56888472 L45.2769089,1.56888472 C46.1304324,1.56888472 46.824549,2.27252952 46.824549,3.13776945 L46.824549,47.0665417 C46.824549,47.9313894 46.1304324,48.6354264 45.2769089,48.6354264 L3.22613326,48.6354264 C2.37260972,48.6354264 1.67849312,47.9313894 1.67849312,47.0665417 L1.67849312,3.13776945 Z" id="Shape"></path>
                    <path d="M4.72726682,6.23953299 L29.6346004,6.23953299 C30.0619038,6.23953299 30.4084205,5.8882597 30.4084205,5.45509063 C30.4084205,5.02192156 30.0619038,4.67064827 29.6346004,4.67064827 L4.72726682,4.67064827 C4.29996338,4.67064827 3.95344675,5.02192156 3.95344675,5.45509063 C3.95344675,5.8882597 4.29996338,6.23953299 4.72726682,6.23953299 Z" id="Path"></path>
                    <path d="M32.9706161,6.23953299 L38.4240357,6.23953299 C38.8513391,6.23953299 39.1978558,5.8882597 39.1978558,5.45509063 C39.1978558,5.02192156 38.8513391,4.67064827 38.4240357,4.67064827 L32.9706161,4.67064827 C32.5433127,4.67064827 32.196796,5.02192156 32.196796,5.45509063 C32.196796,5.8882597 32.5432353,6.23953299 32.9706161,6.23953299 Z" id="Path"></path>
                    <path d="M41.8804578,6.23953299 L43.7756979,6.23953299 C44.2030014,6.23953299 44.549518,5.8882597 44.549518,5.45509063 C44.549518,5.02192156 44.2030014,4.67064827 43.7756979,4.67064827 L41.8804578,4.67064827 C41.4531544,4.67064827 41.1066377,5.02192156 41.1066377,5.45509063 C41.1066377,5.8882597 41.4531544,6.23953299 41.8804578,6.23953299 Z" id="Path"></path>
                    <path d="M43.7757753,43.9647782 L18.8684417,43.9647782 C18.4411383,43.9647782 18.0946217,44.3156592 18.0946217,44.7492205 C18.0946217,45.1827818 18.4411383,45.5336629 18.8684417,45.5336629 L43.7757753,45.5336629 C44.2030787,45.5336629 44.5495954,45.1827818 44.5495954,44.7492205 C44.5495954,44.3156592 44.2030787,43.9647782 43.7757753,43.9647782 Z" id="Path"></path>
                    <path d="M15.532426,43.9647782 L10.0790064,43.9647782 C9.65170299,43.9647782 9.30518637,44.3156592 9.30518637,44.7492205 C9.30518637,45.1827818 9.65170299,45.5336629 10.0790064,45.5336629 L15.532426,45.5336629 C15.9597295,45.5336629 16.3062461,45.1827818 16.3062461,44.7492205 C16.3062461,44.3156592 15.9598068,43.9647782 15.532426,43.9647782 Z" id="Path"></path>
                    <path d="M4.72726682,45.5336629 L6.62250694,45.5336629 C7.04981038,45.5336629 7.39632701,45.1827818 7.39632701,44.7492205 C7.39632701,44.3156592 7.04981038,43.9647782 6.62250694,43.9647782 L4.72726682,43.9647782 C4.29996338,43.9647782 3.95344675,44.3156592 3.95344675,44.7492205 C3.95344675,45.1827818 4.29996338,45.5336629 4.72726682,45.5336629 Z" id="Path"></path>
                    <path d="M5.23628566,27.5803659 L5.23628566,37.1706444 C5.23628566,37.6042057 5.58280229,37.9550868 6.01010574,37.9550868 L20.9507142,37.9550868 C21.3780176,37.9550868 21.7245342,37.6042057 21.7245342,37.1706444 L21.7245342,27.5803659 C21.7245342,25.1289835 19.8398954,23.109672 17.4341662,22.9817294 C17.2074369,22.9656484 16.9977317,23.0545257 16.8425034,23.2146304 L13.4804873,26.6733936 L10.1184713,23.2146304 C9.96316557,23.0545257 9.75539488,22.9648639 9.52680844,22.9817294 C7.12092445,23.109672 5.23628566,25.1289835 5.23628566,27.5803659 Z M6.78392581,27.5803659 C6.78392581,26.0781588 7.85512493,24.8225803 9.27732884,24.5850512 L12.9291405,28.3418241 C13.2200969,28.6406182 13.740723,28.6406182 14.0316794,28.3418241 L17.6834911,24.5850512 C19.105695,24.8225019 20.1768941,26.0780803 20.1768941,27.5803659 L20.1768941,36.3862021 L6.78392581,36.3862021 L6.78392581,27.5803659 Z" id="Shape"></path>
                    <path d="M13.4804099,22.6408108 C16.3032282,22.6408108 18.6001583,20.3104679 18.6001583,17.445449 C18.6001583,14.5804302 16.3032282,12.2493028 13.4804099,12.2493028 C10.6575917,12.2493028 8.3610485,14.5804302 8.3610485,17.445449 C8.3610485,20.3104679 10.6575143,22.6408108 13.4804099,22.6408108 Z M13.4804099,13.8181091 C15.4500916,13.8181091 17.0525182,15.4451994 17.0525182,17.4453706 C17.0525182,19.4447573 15.4500916,21.0718476 13.4804099,21.0718476 C11.5111152,21.0718476 9.90868864,19.4447573 9.90868864,17.4453706 C9.90861126,15.4452779 11.5110379,13.8181091 13.4804099,13.8181091 Z" id="Shape"></path>
                    <path d="M33.0816593,22.3926132 C31.6092344,22.3926132 30.4114384,23.608342 30.4114384,25.1021556 C30.4114384,26.5959692 31.6092344,27.8116979 33.0816593,27.8116979 C34.5540841,27.8116979 35.7518802,26.5959692 35.7518802,25.1021556 C35.7518802,23.608342 34.5541615,22.3926132 33.0816593,22.3926132 Z M33.0816593,26.2428132 C32.462758,26.2428132 31.9590785,25.7311215 31.9590785,25.1021556 C31.9590785,24.4731897 32.462758,23.9614979 33.0816593,23.9614979 C33.7005606,23.9614979 34.2042401,24.4731897 34.2042401,25.1021556 C34.2042401,25.7311215 33.7005606,26.2428132 33.0816593,26.2428132 Z" id="Shape"></path>
                    <path d="M25.698642,10.7462328 C25.2713385,10.7462328 24.9248219,11.0971139 24.9248219,11.5306752 C24.9248219,16.9182253 24.9248219,32.8034185 24.9248219,38.673636 C24.9248219,39.1071973 25.2713385,39.4580784 25.698642,39.4580784 C26.1259454,39.4580784 26.472462,39.1071973 26.472462,38.673636 L26.472462,35.6622402 L42.4929364,35.6622402 C42.9202398,35.6622402 43.2667565,35.3113591 43.2667565,34.8777978 L43.2667565,15.3265133 C43.2667565,14.892952 42.9202398,14.5420709 42.4929364,14.5420709 L26.472462,14.5420709 L26.472462,11.5306752 C26.472462,11.0971139 26.1260228,10.7462328 25.698642,10.7462328 Z M26.472462,19.5283004 L35.2501353,19.5283004 C35.551306,20.9332366 36.6436305,22.0425166 38.0279946,22.3481353 L38.0279946,27.8560974 C36.6435531,28.1617161 35.5512287,29.2709961 35.2501353,30.6759323 L26.472462,30.6759323 L26.472462,19.5283004 Z M41.7191163,16.1109557 L41.7191163,34.0933555 L26.472462,34.0933555 L26.472462,32.2448955 L35.9411566,32.2448955 C36.36846,32.2448955 36.7149767,31.8940144 36.7149767,31.4604531 C36.7149767,30.2914771 37.651299,29.3408114 38.8018146,29.3408114 C39.2291181,29.3408114 39.5756347,28.9899304 39.5756347,28.5563691 L39.5756347,21.648099 C39.5756347,21.2145377 39.2291181,20.8636566 38.8018146,20.8636566 C37.651299,20.8636566 36.7149767,19.9129909 36.7149767,18.7440149 C36.7149767,18.3104536 36.36846,17.9595725 35.9411566,17.9595725 L26.472462,17.9595725 L26.472462,16.1109557 L41.7191163,16.1109557 L41.7191163,16.1109557 Z" id="Shape"></path>
                </g>
            </g>
        </g>
    </g>
</svg>